<?xml version="1.0" encoding="utf-8"?>
<!-- Generator: Adobe Illustrator 16.0.4, SVG Export Plug-In . SVG Version: 6.00 Build 0)  -->
<!DOCTYPE svg PUBLIC "-//W3C//DTD SVG 1.1//EN" "http://www.w3.org/Graphics/SVG/1.1/DTD/svg11.dtd">
<svg version="1.1" id="Shopping_cart" xmlns="http://www.w3.org/2000/svg" xmlns:xlink="http://www.w3.org/1999/xlink" x="0px"
	 y="0px" width="24px" height="24px" viewBox="0 0 24 24" enable-background="new 0 0 24 24" xml:space="preserve">
<path d="M23.759,6.198l-2.85-2.196c-0.162-0.111-0.39-0.211-0.626-0.284C20.046,3.645,19.8,3.6,19.604,3.6H11.4l0.961,6h7.242
	c0.196,0,0.442-0.044,0.679-0.117s0.465-0.174,0.625-0.283l2.851-2.198C23.92,6.892,24,6.746,24,6.6S23.92,6.309,23.759,6.198z
	 M10.2,1.2H9c-0.331,0-0.6,0.269-0.6,0.6V6H4.397C4.198,6,3.953,6.044,3.716,6.119C3.479,6.19,3.252,6.29,3.091,6.402l-2.85,2.195
	C0.079,8.707,0,8.854,0,9c0,0.146,0.079,0.29,0.241,0.402l2.85,2.198c0.161,0.109,0.388,0.21,0.625,0.282
	C3.953,11.956,4.198,12,4.397,12H8.4v10.2c0,0.331,0.269,0.6,0.6,0.6h1.2c0.331,0,0.6-0.269,0.6-0.6V1.8
	C10.8,1.469,10.531,1.2,10.2,1.2z"/>
</svg>
