<?xml version="1.0" encoding="utf-8"?>
<!-- Generator: Adobe Illustrator 16.0.4, SVG Export Plug-In . SVG Version: 6.00 Build 0)  -->
<!DOCTYPE svg PUBLIC "-//W3C//DTD SVG 1.1//EN" "http://www.w3.org/Graphics/SVG/1.1/DTD/svg11.dtd">
<svg version="1.1" id="Shopping_cart" xmlns="http://www.w3.org/2000/svg" xmlns:xlink="http://www.w3.org/1999/xlink" x="0px"
	 y="0px" width="24px" height="24px" viewBox="200 28 24 24" enable-background="new 200 28 24 24" xml:space="preserve">
<path d="M217.333,49.333c0,1.472,1.192,2.667,2.667,2.667c1.472,0,2.667-1.195,2.667-2.667c0-1.475-1.194-2.667-2.667-2.667
	C218.525,46.667,217.333,47.859,217.333,49.333z M204,49.333c0,1.472,1.193,2.667,2.667,2.667c1.471,0,2.667-1.195,2.667-2.667
	c0-1.475-1.196-2.667-2.667-2.667C205.193,46.667,204,47.859,204,49.333z M208.729,42.896l14.757-4.216
	C223.768,38.599,224,38.294,224,38v-7.333h-18.667v-2.133c0-0.293-0.242-0.533-0.532-0.533h-4.269C200.24,28,200,28.24,200,28.533
	v2.133h2.667l2.547,11.943l0.12,1.257v2.199c0,0.292,0.24,0.533,0.533,0.533h17.6c0.293,0,0.533-0.243,0.533-0.533V44h-14.997
	C207.469,44,207.438,43.265,208.729,42.896z"/>
</svg>
