<?xml version="1.0" encoding="utf-8"?>
<!-- Generator: Adobe Illustrator 16.0.4, SVG Export Plug-In . SVG Version: 6.00 Build 0)  -->
<!DOCTYPE svg PUBLIC "-//W3C//DTD SVG 1.1//EN" "http://www.w3.org/Graphics/SVG/1.1/DTD/svg11.dtd">
<svg version="1.1" id="Shopping_cart" xmlns="http://www.w3.org/2000/svg" xmlns:xlink="http://www.w3.org/1999/xlink" x="0px"
	 y="0px" width="24px" height="24px" viewBox="0 0 24 24" enable-background="new 0 0 24 24" xml:space="preserve">
<path d="M19.543,10.286H9.6c-0.946,0-1.028,0.766-1.028,1.714s0.082,1.714,1.028,1.714h9.943c0.946,0,1.028-0.766,1.028-1.714
	S20.489,10.286,19.543,10.286z M22.972,18.857H9.6c-0.946,0-1.028,0.766-1.028,1.714s0.082,1.715,1.028,1.715h13.372
	c0.946,0,1.028-0.767,1.028-1.715S23.918,18.857,22.972,18.857z M9.6,5.143h13.372C23.918,5.143,24,4.376,24,3.429
	c0-0.948-0.082-1.715-1.028-1.715H9.6c-0.946,0-1.028,0.767-1.028,1.715C8.571,4.376,8.653,5.143,9.6,5.143z M4.114,10.286H1.028
	C0.082,10.286,0,11.052,0,12s0.082,1.714,1.028,1.714h3.086c0.946,0,1.028-0.766,1.028-1.714S5.061,10.286,4.114,10.286z
	 M4.114,18.857H1.028C0.082,18.857,0,19.623,0,20.571s0.082,1.715,1.028,1.715h3.086c0.946,0,1.028-0.767,1.028-1.715
	S5.061,18.857,4.114,18.857z M4.114,1.714H1.028C0.082,1.714,0,2.48,0,3.429c0,0.947,0.082,1.714,1.028,1.714h3.086
	c0.946,0,1.028-0.767,1.028-1.714C5.143,2.48,5.061,1.714,4.114,1.714z"/>
</svg>
