<?xml version="1.0" encoding="utf-8"?>
<!-- Generator: Adobe Illustrator 16.0.4, SVG Export Plug-In . SVG Version: 6.00 Build 0)  -->
<!DOCTYPE svg PUBLIC "-//W3C//DTD SVG 1.1//EN" "http://www.w3.org/Graphics/SVG/1.1/DTD/svg11.dtd">
<svg version="1.1" id="Ebene_1" xmlns="http://www.w3.org/2000/svg" xmlns:xlink="http://www.w3.org/1999/xlink" x="0px" y="0px"
	 width="152px" height="36px" viewBox="0 0 152 36" enable-background="new 0 0 152 36" xml:space="preserve">
<path d="M141.98,12.874c1.763,0,4.104-0.191,4.104-0.191l0.046,1.89c0,0-2.545,0.51-4.529,0.51c-3.369,0-4.687-1.677-4.687-5.414
	c0-3.864,1.741-5.669,4.842-5.669c3.17,0,4.753,1.55,4.753,4.841l-0.178,1.741h-6.852C139.506,12.13,140.173,12.874,141.98,12.874z
	 M139.482,8.691h4.506c0-1.847-0.646-2.526-2.23-2.526S139.482,6.928,139.482,8.691z M128.014,14.905h-2.545V0h2.545v4.523
	c0,0,1.762-0.625,2.989-0.625c3.101,0,3.884,1.766,3.884,5.362v5.644h-2.566V9.283c0-2.024-0.247-3.08-1.809-3.08
	c-1.004,0-2.498,0.366-2.498,0.366V14.905L128.014,14.905z M120.002,3.999c1.204,0,3.393,0.404,3.393,0.404l-0.09,2.102
	c0,0-1.764-0.191-2.611-0.191c-2.274,0-2.789,0.807-2.789,3.1c0,2.548,0.471,3.376,2.812,3.376c0.848,0,2.61-0.191,2.61-0.191
	l0.067,2.102c0,0-2.276,0.382-3.459,0.382c-3.392,0-4.619-1.634-4.619-5.669C115.314,5.612,116.677,3.999,120.002,3.999
	L120.002,3.999z M113.609,4.487l-0.045,2.059c0,0-2.676-0.339-4.016-0.339c-1.316,0-1.854,0.276-1.854,1.082
	c0,0.659,0.47,0.829,2.32,1.105c2.947,0.445,3.928,1.188,3.928,3.291c0,2.484-1.694,3.397-4.44,3.397
	c-1.584,0-4.171-0.467-4.171-0.467l0.089-2.059c0,0,2.699,0.339,3.838,0.339c1.562,0,2.142-0.297,2.142-1.146
	c0-0.679-0.355-0.871-2.142-1.146c-2.856-0.446-4.106-1.04-4.106-3.248c0-2.421,1.988-3.355,4.218-3.355
	C111.001,3.999,113.609,4.487,113.609,4.487z M103.777,6.318h-3.012v4.412c0,1.492,0.047,2.055,1.16,2.055
	c0.625,0,1.807-0.065,1.807-0.065l0.113,2.113c0,0-1.494,0.301-2.275,0.301c-2.566,0-3.348-0.948-3.348-4.058V6.318h-1.406v-2.22
	h1.406V0.994h2.543v3.104h3.012V6.318z M92.533,4.242h2.543v10.62h-2.543v-0.531c0,0-1.741,0.765-2.946,0.765
	c-3.212,0-3.858-1.572-3.858-5.298V4.242h2.543v5.533c0,2.257,0.133,3.129,1.83,3.129c0.98,0,2.433-0.489,2.433-0.489L92.533,4.242
	L92.533,4.242z M79.211,12.874c1.764,0,4.105-0.191,4.105-0.191l0.045,1.89c0,0-2.545,0.51-4.528,0.51
	c-3.37,0-4.687-1.677-4.687-5.414c0-3.864,1.74-5.669,4.842-5.669c3.168,0,4.753,1.55,4.753,4.841l-0.179,1.741h-6.851
	C76.734,12.13,77.402,12.874,79.211,12.874z M76.712,8.691h4.507c0-1.847-0.646-2.526-2.23-2.526
	C77.402,6.165,76.712,6.928,76.712,8.691L76.712,8.691z M66.374,14.905H62.32c-0.287-0.043-0.555-0.183-0.762-0.404
	c-0.214-0.227-0.347-0.522-0.383-0.839V0h5.199c5.021,0,6.204,2.499,6.204,7.193C72.578,11.976,71.529,14.905,66.374,14.905z
	 M69.877,7.194c0-3.059-0.446-4.781-3.503-4.781h-2.611v10.08h2.611C69.431,12.493,69.877,10.274,69.877,7.194z M84.566,35.885
	h-4.053c-0.287-0.041-0.557-0.182-0.763-0.402c-0.214-0.227-0.351-0.522-0.384-0.838V20.98h5.199c5.02,0,6.201,2.5,6.201,7.194
	C90.77,32.957,89.723,35.885,84.566,35.885z M88.07,28.176c0-3.061-0.447-4.783-3.504-4.783h-2.61v10.082h2.61
	C87.623,33.475,88.07,31.256,88.07,28.176z M69.881,35.885l-0.848-2.928h-5.601l-0.759,2.928H60.04l3.343-13.533l0.063-0.256
	l0.028-0.117c0.075-0.196,0.187-0.381,0.332-0.533c0.275-0.295,0.648-0.461,1.038-0.465h2.891c0.389,0.004,0.762,0.17,1.039,0.465
	c0.172,0.183,0.298,0.408,0.37,0.65h0.005l3.365,13.789H69.881z M63.99,30.521h4.53l-1.573-6.605l-0.145-0.609h-1.048l-0.155,0.631
	L63.99,30.521L63.99,30.521z M147.471,33.717c1.764,0,4.105-0.191,4.105-0.191l0.045,1.89c0,0-2.543,0.51-4.528,0.51
	c-3.372,0-4.688-1.678-4.688-5.414c0-3.862,1.74-5.668,4.844-5.668c3.168,0,4.752,1.55,4.752,4.841l-0.178,1.741h-6.85
	C144.994,32.973,145.663,33.717,147.471,33.717L147.471,33.717z M144.973,29.533h4.506c0-1.848-0.646-2.525-2.229-2.525
	S144.973,27.771,144.973,29.533z M138.546,27.414v8.434h-2.544v-8.434h-1.271v-2.188h1.271v-0.654c0-3.043,0.803-3.936,3.168-3.936
	c0.736,0,2.432,0.233,2.432,0.233l-0.021,1.996l-1.764-0.041c-0.979,0-1.271,0.42-1.271,1.768v0.634h2.878v2.188H138.546z
	 M125.469,35.924v-10.77h2.545v10.77H125.469L125.469,35.924z M125.469,23.627V21.02h2.545v2.607H125.469L125.469,23.627z
	 M120.143,35.885v-6.354h-6.381v6.354h-2.611V20.98h2.611v6.117h6.381V20.98h2.633v14.903L120.143,35.885L120.143,35.885z
	 M104.343,29.771v-2.293h4.16v2.293H104.343z M101.793,21.322l-0.2,2.254c0,0-2.768-0.34-4.062-0.34
	c-1.475,0-2.365,0.512-2.365,1.617c0,1.276,0.604,1.553,3.035,2.403c2.767,0.979,3.926,1.724,3.926,4.275
	c0,3.062-1.784,4.467-4.908,4.467c-1.695,0-4.707-0.554-4.707-0.554l0.268-2.256c0,0,2.834,0.363,4.418,0.363
	c1.473,0,2.299-0.533,2.299-1.957c0-1.147-0.536-1.469-2.588-2.147c-3.348-1.173-4.374-1.916-4.374-4.554
	c0-2.787,2.03-4.104,4.998-4.104C99.25,20.791,101.793,21.322,101.793,21.322L101.793,21.322z M74.347,20.98h2.633v14.903h-1.315
	c-0.337-0.036-0.653-0.196-0.896-0.452c-0.23-0.246-0.377-0.562-0.422-0.902V20.98z M133.199,35.924h-2.527V21.02h1.264
	c0.322,0.037,0.627,0.197,0.858,0.455c0.222,0.244,0.363,0.562,0.405,0.902V35.924z M0,35.924L33.245,1.946l0.007-0.003
	C34.505,0.7,36.155,0.002,37.931,0l16.79,0.012L21.548,33.906c-1.207,1.238-2.829,1.955-4.531,2.014l-0.01,0.004H0z M36.847,34.518
	l0.015-14.069l0.004-0.05c0.013-0.643,0.272-1.256,0.725-1.709c0.464-0.467,1.094-0.729,1.751-0.729l0.119,0.003l13.88,0.016h0.018
	l1.366,0.001l-0.017,15.439v0.041l-0.001,1.09v-1.032v0.02c-0.023,0.629-0.28,1.225-0.724,1.672
	c-0.464,0.467-1.094,0.729-1.751,0.729l-0.215-0.01l-15.17-0.018l0.001-1.355L36.847,34.518L36.847,34.518z"/>
</svg>
