<?xml version="1.0" encoding="utf-8"?>
<!-- Generator: Adobe Illustrator 16.0.4, SVG Export Plug-In . SVG Version: 6.00 Build 0)  -->
<!DOCTYPE svg PUBLIC "-//W3C//DTD SVG 1.1//EN" "http://www.w3.org/Graphics/SVG/1.1/DTD/svg11.dtd">
<svg version="1.1" id="Ribbon" xmlns="http://www.w3.org/2000/svg" xmlns:xlink="http://www.w3.org/1999/xlink" x="0px" y="0px"
	 width="20px" height="36px" viewBox="0 0 20 36" enable-background="new 0 0 20 36" xml:space="preserve">
<g>
	<path fill-rule="evenodd" clip-rule="evenodd" d="M5.628,3.749l1.081,2.537C6.714,6.297,6.72,6.308,6.726,6.319
		c0.729-0.256,1.503-0.428,2.255-0.527c1.658-0.22,3.286,0.152,4.298,0.518c0.004-0.008,0.008-0.016,0.012-0.024l1.081-2.537
		l0.293-0.688C14.604,2.555,14.533,1.974,14.5,1.76c-0.027-0.178-0.076-0.339-0.198-0.478c-0.166-0.187-0.354-0.344-0.567-0.474
		c-0.421-0.257-0.881-0.416-1.356-0.534C11.606,0.082,10.818-0.003,10.022,0c-0.59,0.002-1.176,0.048-1.758,0.153
		C7.658,0.263,7.069,0.423,6.521,0.71c-0.276,0.145-0.53,0.323-0.73,0.566C5.708,1.375,5.629,1.476,5.608,1.613
		C5.543,2.031,5.468,2.447,5.4,2.864C5.392,2.917,5.377,3.009,5.36,3.119L5.628,3.749z"/>
	<path fill-rule="evenodd" clip-rule="evenodd" d="M9.628,22.037l-0.002-0.003l-0.002-0.003c-0.876-1.36-2.733-4.244-3.314-5.147
		c-0.092,0.125-0.184,0.249-0.275,0.374c-0.545,0.754-1.087,1.511-1.57,2.307c-0.295,0.487-0.586,0.977-0.853,1.48
		c-0.314,0.594-0.609,1.2-0.896,1.809c-0.42,0.893-0.825,1.794-1.239,2.69c-0.267,0.578-0.539,1.154-0.807,1.731
		c-0.05,0.109-0.114,0.211-0.11,0.344C0.579,28.278,0.568,35.98,0.57,36c2.727-4.125,7.926-11.929,9.17-13.795
		C9.671,22.102,9.632,22.044,9.628,22.037z"/>
	<path fill-rule="evenodd" clip-rule="evenodd" d="M10.297,11.726c0.003,0.004,0.006,0.008,0.009,0.013l3.349,4.38
		c0.482-0.807,0.947-1.624,1.348-2.475c0.354-0.75,0.65-1.519,0.828-2.331c0.029-0.131,0.061-0.266,0.056-0.398
		c-0.012-0.301-0.041-0.603-0.073-0.903c-0.035-0.327-0.077-0.653-0.126-0.978c-0.055-0.365-0.121-0.729-0.185-1.093
		c-0.058-0.328-0.12-0.656-0.182-0.983c-0.071-0.377-0.146-0.754-0.216-1.131c-0.056-0.302-0.109-0.605-0.162-0.908
		c-0.059-0.333-0.119-0.667-0.173-1l-1.086,2.549c-0.04,0.079-0.078,0.158-0.118,0.235c-0.36,0.691-0.759,1.359-1.182,2.014
		c-0.498,0.769-1.029,1.514-1.572,2.251c-0.178,0.242-0.359,0.482-0.541,0.722C10.28,11.702,10.289,11.713,10.297,11.726z"/>
	<path fill-rule="evenodd" clip-rule="evenodd" d="M4.497,7.941c-0.064,0.364-0.13,0.728-0.185,1.093
		c-0.049,0.325-0.091,0.651-0.126,0.978c-0.033,0.3-0.061,0.602-0.073,0.903c-0.005,0.132,0.027,0.268,0.056,0.398
		c0.178,0.812,0.475,1.582,0.828,2.331c0.445,0.945,0.969,1.846,1.507,2.74c0.027,0.044,3.485,5.413,3.485,5.413
		S16.318,31.293,19.43,36c0.001-0.02-0.009-7.722,0.009-8.381c0.003-0.133-0.06-0.235-0.11-0.344
		c-0.268-0.578-0.54-1.153-0.807-1.731c-0.414-0.896-0.818-1.797-1.239-2.69c-0.286-0.609-0.581-1.214-0.896-1.809
		c-0.266-0.503-0.557-0.993-0.853-1.48c-0.483-0.796-1.024-1.553-1.57-2.307c-0.161-0.222-0.325-0.441-0.489-0.66l-3.518-4.601
		c-0.016-0.021-0.025-0.035-0.035-0.048c-0.246-0.326-0.494-0.651-0.736-0.98c-0.542-0.737-1.074-1.482-1.572-2.251
		C7.193,8.062,6.794,7.395,6.434,6.703C6.394,6.625,6.355,6.547,6.316,6.468L5.23,3.918c-0.054,0.334-0.114,0.667-0.173,1
		C5.004,5.222,4.951,5.524,4.895,5.827C4.825,6.204,4.75,6.581,4.679,6.958C4.617,7.286,4.555,7.613,4.497,7.941z"/>
</g>
</svg>
