<?xml version="1.0" encoding="utf-8"?>
<!-- Generator: Adobe Illustrator 16.0.4, SVG Export Plug-In . SVG Version: 6.00 Build 0)  -->
<!DOCTYPE svg PUBLIC "-//W3C//DTD SVG 1.1//EN" "http://www.w3.org/Graphics/SVG/1.1/DTD/svg11.dtd">
<svg version="1.1" id="Ebene_1" xmlns="http://www.w3.org/2000/svg" xmlns:xlink="http://www.w3.org/1999/xlink" x="0px" y="0px"
	 width="18px" height="18px" viewBox="0 0 18 18" enable-background="new 0 0 18 18" xml:space="preserve">
<g>
	<path d="M11.039,6.604c0.665,0,1.3,0.132,1.91,0.395c0.604,0.264,1.132,0.617,1.574,1.06c0.449,0.446,0.803,0.97,1.065,1.573
		c0.265,0.601,0.388,1.248,0.374,1.937c0.014,0.184-0.02,0.358-0.093,0.526c-0.073,0.16-0.173,0.303-0.294,0.422
		c-0.114,0.121-0.264,0.213-0.43,0.281c-0.17,0.07-0.345,0.104-0.521,0.104c-0.185,0-0.358-0.034-0.526-0.104
		c-0.16-0.068-0.305-0.16-0.429-0.281c-0.125-0.119-0.223-0.262-0.282-0.422c-0.064-0.168-0.102-0.344-0.115-0.526
		c0.015-0.313-0.041-0.61-0.166-0.89c-0.125-0.271-0.291-0.512-0.489-0.709C12.414,9.766,12.18,9.607,11.9,9.491
		c-0.271-0.12-0.562-0.183-0.862-0.183H9.213l0.021,2.707c-0.014,0.078-0.031,0.154-0.049,0.237
		c-0.019,0.078-0.053,0.157-0.104,0.228c-0.048,0.068-0.099,0.129-0.15,0.185c-0.048,0.062-0.118,0.104-0.205,0.142
		C8.7,12.834,8.673,12.854,8.64,12.867c-0.03,0.009-0.064,0.021-0.104,0.025c-0.037,0.01-0.071,0.012-0.101,0.012
		c-0.033,0-0.067,0-0.104,0c-0.051,0-0.097-0.002-0.141-0.012c-0.044-0.006-0.093-0.018-0.141-0.025
		c-0.051-0.014-0.097-0.032-0.141-0.061c-0.044-0.022-0.086-0.045-0.123-0.073L2.39,8.672C2.328,8.635,2.274,8.586,2.23,8.531
		C2.186,8.477,2.147,8.418,2.117,8.363C2.084,8.305,2.064,8.243,2.05,8.174C2.039,8.106,2.032,8.033,2.032,7.958
		c0-0.077,0.007-0.146,0.018-0.208c0.014-0.062,0.035-0.125,0.067-0.187c0.03-0.062,0.07-0.122,0.113-0.18
		c0.044-0.056,0.098-0.102,0.16-0.141l5.396-4.061c0.074-0.049,0.15-0.09,0.224-0.123c0.077-0.03,0.155-0.048,0.236-0.055
		C8.326,2.997,8.41,3,8.491,3.013c0.081,0.011,0.166,0.044,0.254,0.095c0.077,0.037,0.141,0.083,0.196,0.141
		C8.999,3.304,9.05,3.366,9.094,3.436c0.044,0.069,0.075,0.143,0.101,0.226c0.026,0.081,0.04,0.159,0.04,0.235v2.708H11.039z"/>
</g>
</svg>
