<?xml version="1.0" encoding="utf-8"?>
<!-- Generator: Adobe Illustrator 16.0.4, SVG Export Plug-In . SVG Version: 6.00 Build 0)  -->
<!DOCTYPE svg PUBLIC "-//W3C//DTD SVG 1.1//EN" "http://www.w3.org/Graphics/SVG/1.1/DTD/svg11.dtd">
<svg version="1.1" id="Layer_1" xmlns="http://www.w3.org/2000/svg" xmlns:xlink="http://www.w3.org/1999/xlink" x="0px" y="0px"
	 width="16px" height="16px" viewBox="0 0 16 16" enable-background="new 0 0 16 16" xml:space="preserve">
<path d="M16,2.539c-0.589,0.261-1.221,0.438-1.885,0.517c0.678-0.406,1.198-1.05,1.443-1.816c-0.634,0.376-1.337,0.649-2.084,0.796
	C12.875,1.398,12.021,1,11.078,1C9.265,1,7.795,2.47,7.795,4.283c0,0.257,0.029,0.508,0.085,0.748
	c-2.728-0.137-5.147-1.444-6.766-3.43c-0.283,0.484-0.444,1.048-0.444,1.65c0,1.139,0.58,2.144,1.46,2.732
	C1.592,5.966,1.085,5.819,0.643,5.573c0,0.014,0,0.027,0,0.042c0,1.59,1.131,2.917,2.633,3.219C3,8.908,2.71,8.948,2.411,8.948
	c-0.211,0-0.417-0.021-0.618-0.059c0.417,1.304,1.63,2.253,3.066,2.28c-1.124,0.88-2.539,1.405-4.077,1.405
	c-0.265,0-0.526-0.015-0.783-0.045c1.453,0.931,3.178,1.475,5.032,1.475c6.038,0,9.34-5.002,9.34-9.34
	c0-0.142-0.003-0.284-0.01-0.425C15.003,3.776,15.56,3.198,16,2.539z"/>
</svg>
