<?xml version="1.0" encoding="utf-8"?>
<!-- Generator: Adobe Illustrator 16.0.4, SVG Export Plug-In . SVG Version: 6.00 Build 0)  -->
<!DOCTYPE svg PUBLIC "-//W3C//DTD SVG 1.1//EN" "http://www.w3.org/Graphics/SVG/1.1/DTD/svg11.dtd">
<svg version="1.1" id="Ebene_1" xmlns="http://www.w3.org/2000/svg" xmlns:xlink="http://www.w3.org/1999/xlink" x="0px" y="0px"
	 width="18px" height="18px" viewBox="0 0 18 18" enable-background="new 0 0 18 18" xml:space="preserve">
<g>
	<path d="M9,11.142c0.187-0.022,0.362,0.002,0.527,0.086c0.16,0.084,0.307,0.178,0.432,0.293c0.125,0.11,0.223,0.254,0.292,0.43
		s0.104,0.347,0.104,0.509c0,0.198-0.035,0.382-0.104,0.532c-0.069,0.156-0.166,0.307-0.292,0.436
		c-0.125,0.135-0.271,0.228-0.432,0.281c-0.166,0.055-0.34,0.1-0.527,0.122l-5.396-0.037c-0.187,0.022-0.367-0.002-0.536-0.086
		C2.9,13.63,2.754,13.531,2.636,13.426c-0.12-0.106-0.214-0.249-0.282-0.436C2.285,12.81,2.25,12.647,2.25,12.494V8.396L0.878,8.434
		C0.801,8.408,0.723,8.39,0.642,8.378c-0.08-0.014-0.157-0.049-0.226-0.104c-0.068-0.058-0.132-0.106-0.187-0.15
		C0.172,8.08,0.125,8.001,0.088,7.888C0.05,7.837,0.025,7.766,0.011,7.671C0,7.579-0.002,7.495,0.002,7.429
		c0.007-0.07,0.023-0.148,0.048-0.236c0.025-0.088,0.063-0.157,0.111-0.208l2.71-3.647C2.959,3.249,3.065,3.171,3.19,3.104
		c0.125-0.069,0.256-0.099,0.395-0.085C3.724,3.03,3.856,3.06,3.98,3.104s0.23,0.134,0.318,0.272L6.95,6.853
		c0.038,0.077,0.072,0.13,0.105,0.162c0.03,0.03,0.055,0.081,0.074,0.15c0.018,0.07,0.035,0.125,0.046,0.169
		C7.189,7.378,7.196,7.442,7.196,7.53c0,0.102-0.023,0.21-0.067,0.331C7.085,7.978,7.022,8.073,6.942,8.143
		C6.858,8.212,6.766,8.276,6.66,8.338C6.551,8.404,6.436,8.422,6.311,8.396c0,0.026,0,0.03,0,0.019s-0.002-0.011-0.009,0
		c-0.007,0.011-0.01,0.011-0.01,0s0-0.007,0,0.019L4.939,8.396v2.744L9,11.103V11.142z M17.912,8.923
		c0.037,0.062,0.064,0.137,0.072,0.225c0.016,0.088,0.018,0.17,0.014,0.244c-0.004,0.078-0.021,0.154-0.049,0.236
		c-0.022,0.083-0.069,0.154-0.129,0.215l-2.707,3.613c-0.037,0.051-0.084,0.094-0.135,0.141c-0.052,0.041-0.106,0.078-0.166,0.11
		c-0.065,0.033-0.133,0.054-0.203,0.067c-0.068,0.015-0.141,0.019-0.213,0.019c-0.065,0-0.127-0.004-0.196-0.019
		c-0.069-0.014-0.138-0.034-0.196-0.067c-0.064-0.032-0.12-0.069-0.171-0.11c-0.051-0.047-0.092-0.1-0.135-0.158l-2.726-3.596
		c-0.046-0.074-0.089-0.146-0.111-0.226c-0.021-0.075-0.047-0.153-0.055-0.234c-0.015-0.081-0.013-0.161,0.006-0.245
		c0.019-0.08,0.049-0.164,0.086-0.25c0.037-0.076,0.086-0.144,0.142-0.199s0.12-0.106,0.188-0.15
		c0.069-0.044,0.144-0.079,0.228-0.104c0.078-0.026,0.159-0.037,0.231-0.037h1.373V5.689H9c-0.187,0-0.362-0.035-0.527-0.104
		C8.312,5.516,8.166,5.419,8.042,5.294C7.917,5.167,7.82,5.024,7.75,4.862c-0.069-0.164-0.104-0.34-0.104-0.527
		c0-0.175,0.035-0.349,0.104-0.518c0.07-0.168,0.167-0.313,0.292-0.431c0.125-0.121,0.271-0.215,0.432-0.282
		C8.638,3.035,8.813,3,9,3h5.396c0.188,0,0.364,0.035,0.525,0.104c0.161,0.067,0.305,0.162,0.436,0.282
		c0.125,0.118,0.219,0.263,0.287,0.432c0.069,0.168,0.104,0.342,0.104,0.518v4.061h1.372c0.072,0,0.154,0.011,0.232,0.037
		c0.084,0.025,0.156,0.06,0.227,0.104s0.135,0.095,0.189,0.15c0.056,0.055,0.104,0.123,0.142,0.199L17.912,8.923L17.912,8.923z"/>
</g>
</svg>
