<?xml version="1.0" encoding="utf-8"?>
<!-- Generator: Adobe Illustrator 16.0.4, SVG Export Plug-In . SVG Version: 6.00 Build 0)  -->
<!DOCTYPE svg PUBLIC "-//W3C//DTD SVG 1.1//EN" "http://www.w3.org/Graphics/SVG/1.1/DTD/svg11.dtd">
<svg version="1.1" id="Ebene_1" xmlns="http://www.w3.org/2000/svg" xmlns:xlink="http://www.w3.org/1999/xlink" x="0px" y="0px"
	 width="18px" height="18px" viewBox="0 0 18 18" enable-background="new 0 0 18 18" xml:space="preserve">
<g>
	<path d="M12.283,14.168c-0.047-0.016-0.09-0.028-0.141-0.043C12.09,14.117,12.041,14.099,12,14.07
		c-0.047-0.022-0.085-0.052-0.122-0.074L9,11.816l-2.894,2.18c-0.077,0.061-0.157,0.109-0.245,0.143
		c-0.088,0.032-0.183,0.049-0.282,0.049c-0.102,0-0.194-0.017-0.282-0.049c-0.088-0.033-0.176-0.082-0.264-0.143
		c-0.076-0.051-0.141-0.117-0.199-0.194c-0.055-0.084-0.099-0.17-0.132-0.258c-0.03-0.088-0.044-0.181-0.037-0.281
		c0.007-0.103,0.021-0.194,0.046-0.282l1.204-3.424l-2.801-1.71C3.026,7.785,2.952,7.716,2.89,7.642
		C2.828,7.565,2.779,7.485,2.749,7.397C2.717,7.309,2.698,7.216,2.691,7.124C2.687,7.03,2.696,6.932,2.719,6.833
		c0.025-0.102,0.067-0.192,0.123-0.272c0.057-0.084,0.127-0.154,0.207-0.209c0.08-0.055,0.167-0.099,0.254-0.131
		c0.087-0.03,0.18-0.046,0.282-0.046h3.458l1.093-3.537c0.022-0.1,0.064-0.188,0.12-0.262C8.314,2.3,8.379,2.234,8.455,2.178
		c0.073-0.055,0.159-0.1,0.254-0.131C8.804,2.016,8.901,2,9,2s0.194,0.016,0.282,0.046C9.37,2.078,9.45,2.123,9.527,2.178
		C9.6,2.234,9.667,2.3,9.723,2.376c0.059,0.075,0.104,0.162,0.142,0.262l1.071,3.537h3.461c0.103,0,0.196,0.016,0.295,0.046
		c0.092,0.032,0.178,0.076,0.25,0.131c0.074,0.055,0.142,0.125,0.197,0.208c0.055,0.081,0.104,0.17,0.141,0.272
		c0.027,0.099,0.035,0.196,0.029,0.291c-0.004,0.092-0.029,0.185-0.066,0.272c-0.036,0.088-0.088,0.168-0.146,0.245
		c-0.064,0.074-0.139,0.143-0.227,0.205l-2.807,1.709l1.17,3.313c0.01,0.021,0.024,0.054,0.043,0.086
		c0.02,0.025,0.033,0.062,0.043,0.099c0.005,0.042,0.009,0.079,0.02,0.116c0.004,0.035,0.006,0.072,0.006,0.109
		c0,0.125-0.021,0.242-0.072,0.35c-0.053,0.105-0.119,0.197-0.196,0.281c-0.084,0.084-0.177,0.146-0.282,0.195
		c-0.105,0.053-0.225,0.08-0.35,0.08h-0.019C12.373,14.188,12.324,14.176,12.283,14.168z"/>
</g>
</svg>
