<svg xmlns="http://www.w3.org/2000/svg" width="16" height="16" viewBox="17 17 16 16" enable-background="new 17 17 16 16"><path fill="#00ACEE" d="M30.872 21.987l.008.391c0 4.005-3.047 8.622-8.619 8.622-1.712 0-3.303-.502-4.645-1.363.238.029.479.044.723.044 1.42 0 2.727-.485 3.762-1.297-1.325-.025-2.445-.898-2.83-2.103.185.034.375.053.57.053.277 0 .545-.036.798-.104-1.385-.28-2.43-1.504-2.43-2.973v-.038c.409.227.876.363 1.373.379-.814-.543-1.349-1.47-1.349-2.522 0-.555.149-1.075.411-1.523 1.494 1.833 3.728 3.039 6.245 3.166-.051-.222-.078-.452-.078-.691 0-1.672 1.355-3.028 3.03-3.028.87 0 1.658.367 2.211.956.689-.137 1.338-.389 1.925-.735-.227.708-.708 1.301-1.333 1.675.613-.074 1.195-.235 1.74-.476-.405.608-.921 1.141-1.512 1.567z"/></svg>