<svg xmlns="http://www.w3.org/2000/svg" width="24" height="24" viewBox="13 13 24 24" enable-background="new 13 13 24 24"><path fill="#829099" d="M32.64 30.537l-3.826-3.827c.577-.947.91-2.061.91-3.251 0-3.461-2.999-6.458-6.46-6.458-3.46-.001-6.264 2.804-6.264 6.264s2.998 6.458 6.458 6.458c1.151 0 2.228-.312 3.155-.854l3.847 3.85c.377.376.987.376 1.362 0l.956-.955c.374-.376.238-.851-.138-1.227zm-13.712-7.272c0-2.396 1.941-4.337 4.336-4.337 2.396 0 4.531 2.134 4.531 4.531 0 2.396-1.942 4.338-4.337 4.338-2.396-.001-4.53-2.137-4.53-4.532z"/></svg>