<svg xmlns="http://www.w3.org/2000/svg" width="48" height="64" viewBox="0 0 48 64"><circle fill-rule="evenodd" clip-rule="evenodd" fill="#84E0D5" cx="24" cy="28.196" r="24" enable-background="new"/><path fill="#76DDD0" d="M7.029 11.226c-9.373 9.373-9.373 24.569 0 33.941s24.569 9.373 33.941 0c-6.364-6.364-23.098-23.099-33.941-33.941z" enable-background="new"/><g fill-rule="evenodd" clip-rule="evenodd"><path fill="#E55D45" d="M23.088 4.783l.656 4.628.013.062c1.305-.099 2.648-.041 3.923.126 2.811.367 5.313 1.691 6.812 2.733l.029-.034 2.882-3.68.781-.997c.122-.856.262-1.839.303-2.203.034-.303.024-.589-.114-.868-.188-.379-.43-.72-.721-1.025-.577-.606-1.261-1.068-1.986-1.47-1.182-.654-2.435-1.139-3.739-1.483-.967-.255-1.947-.437-2.945-.52-1.041-.087-2.076-.083-3.1.146-.516.115-1.009.297-1.443.606-.178.127-.352.256-.447.472-.289.656-.595 1.304-.889 1.958l-.178.399.163 1.15z"/><path fill="#FF6E53" d="M21.613 36.482l-.002-.005-.001-.005c-.838-2.613-2.614-8.148-3.168-9.882l-.615.492c-1.224.995-2.442 1.997-3.582 3.088-.697.667-1.389 1.342-2.045 2.049-.776.835-1.523 1.697-2.26 2.568-1.08 1.278-2.137 2.576-3.208 3.862l-2.08 2.481c-.131.157-.279.296-.332.515-.26 1.085-3.658 13.693-3.663 13.725 6.274-5.558 18.21-16.054 21.066-18.563l-.11-.325zM27.233 19.892l.01.026 3.562 8.642c1.143-1.11 2.263-2.243 3.293-3.461.908-1.072 1.732-2.202 2.378-3.453.104-.202.217-.41.266-.628.113-.5.198-1.005.277-1.511.085-.55.16-1.103.222-1.656.07-.623.123-1.247.177-1.871.049-.563.091-1.126.133-1.69l.143-1.947c.041-.52.086-1.039.132-1.557.051-.572.098-1.143.156-1.714l-2.896 3.698-.296.333c-.893.974-1.84 1.892-2.82 2.778-1.151 1.042-2.349 2.028-3.561 2.998-.397.318-.8.631-1.202.944l.026.069zM19.397 11.151c-.266.567-.532 1.134-.783 1.708-.223.51-.434 1.026-.635 1.545-.185.478-.364.958-.516 1.447-.067.213-.073.45-.083.677-.065 1.407.083 2.798.333 4.18.315 1.742.776 3.448 1.266 5.147.024.084 3.331 10.392 3.331 10.392s6.199 18.326 9.229 27.397c.012-.031 3.373-12.648 3.691-13.719.064-.216.005-.411-.03-.612l-.561-3.188c-.284-1.65-.551-3.302-.848-4.949-.203-1.122-.419-2.243-.673-3.354-.215-.94-.477-1.871-.747-2.797-.441-1.515-.996-2.992-1.558-4.465-.166-.435-.338-.865-.512-1.297l-3.741-9.076-.036-.094c-.258-.643-.522-1.283-.774-1.928-.564-1.445-1.109-2.899-1.585-4.376-.405-1.257-.766-2.526-1.052-3.815l-.091-.437-.659-4.651c-.234.524-.479 1.042-.722 1.562-.22.473-.439.945-.664 1.415l-.851 1.758c-.245.509-.49 1.019-.729 1.53z"/></g></svg>