<?xml version="1.0" encoding="utf-8"?>
<!-- Generator: Adobe Illustrator 16.0.4, SVG Export Plug-In . SVG Version: 6.00 Build 0)  -->
<!DOCTYPE svg PUBLIC "-//W3C//DTD SVG 1.1//EN" "http://www.w3.org/Graphics/SVG/1.1/DTD/svg11.dtd">
<svg version="1.1" id="Ebene_3_Kopie" xmlns="http://www.w3.org/2000/svg" xmlns:xlink="http://www.w3.org/1999/xlink" x="0px"
	 y="0px" width="48px" height="48px" viewBox="0 0 48 48" enable-background="new 0 0 48 48" xml:space="preserve">
<path fill="#76DDD0" d="M24,7c9.374,0,17,7.626,17,17s-7.626,17-17,17S7,33.374,7,24S14.626,7,24,7 M24,0C10.745,0,0,10.745,0,24
	s10.745,24,24,24s24-10.745,24-24S37.255,0,24,0L24,0z"/>
<path fill="#475A68" d="M27.582,29.951c-0.319,0.319-0.559,0.479-0.772,0.479c-0.106,0-0.24-0.026-0.373-0.08
	c-0.16-0.054-1.759-0.879-5.035-3.756c-3.303-2.903-3.73-4.796-3.756-5.301c0-0.187,0.159-0.479,0.479-0.773
	c0.186-0.16,0.346-0.346,0.533-0.479l-3.97-7.059c-2.478,1.812-2.717,3.941-2.664,4.875c0.054,1.064,0.719,6.687,6.233,11.907
	c6.847,6.5,11.589,6.233,11.908,6.233c0.933,0,3.597-0.479,5.115-2.931l-7.033-3.862C27.956,29.523,27.689,29.844,27.582,29.951z"/>
<path fill="#475A68" d="M19.165,19.614c0.373-0.267,0.719-0.586,1.064-0.933c0.32-0.347,0.479-0.64,0.479-0.854
	c0-0.16-0.025-0.319-0.105-0.479s-3.091-5.114-3.197-5.221c-0.239-0.24-1.118-0.106-1.544,0.106
	c-0.32,0.186-0.586,0.346-0.854,0.533l3.942,7.032C19.005,19.722,19.085,19.668,19.165,19.614z"/>
<path fill="#475A68" d="M35.868,30.59c-0.106-0.105-5.062-3.01-5.222-3.09c-0.159-0.08-0.346-0.106-0.479-0.106
	c-0.239,0-0.506,0.16-0.853,0.479c-0.16,0.16-0.506,0.586-0.853,1.013l6.979,3.836c0.106-0.186,0.187-0.399,0.294-0.613
	C35.922,31.655,36.107,30.83,35.868,30.59z"/>
</svg>
