<?xml version="1.0" encoding="utf-8"?>
<!-- Generator: Adobe Illustrator 16.0.4, SVG Export Plug-In . SVG Version: 6.00 Build 0)  -->
<!DOCTYPE svg PUBLIC "-//W3C//DTD SVG 1.1//EN" "http://www.w3.org/Graphics/SVG/1.1/DTD/svg11.dtd">
<svg version="1.1" id="Ebene_3_Kopie_Kopie" xmlns="http://www.w3.org/2000/svg" xmlns:xlink="http://www.w3.org/1999/xlink"
	 x="0px" y="0px" width="48px" height="48px" viewBox="0 0 48 48" enable-background="new 0 0 48 48" xml:space="preserve">
<path fill="#FFFFFF" d="M24,0C10.745,0,0,10.745,0,24s10.745,24,24,24s24-10.745,24-24S37.255,0,24,0L24,0z"/>
<path fill="#76DDD0" d="M24,7c9.374,0,17,7.626,17,17s-7.626,17-17,17S7,33.374,7,24S14.626,7,24,7 M24,0C10.745,0,0,10.745,0,24
	s10.745,24,24,24s24-10.745,24-24S37.255,0,24,0L24,0z"/>
<path fill="#DF6585" d="M30.355,13.463c-2.314,0-4.403,0.963-5.888,2.512c-0.166,0.172-0.166,0.172-0.166,0.172
	c-0.167,0.201-0.441,0.201-0.609,0c0,0,0,0-0.165-0.172c-1.482-1.549-3.572-2.512-5.885-2.512c-4.5,0-8.146,3.644-8.146,8.143
	c0,2.373,1.318,4.187,1.318,4.187c0.723,0.994,2.028,2.521,2.897,3.393l8.704,8.701c0.869,0.872,2.295,0.872,3.164,0l8.703-8.701
	c0.869-0.871,2.174-2.396,2.896-3.393c0,0,1.315-1.814,1.315-4.187C38.5,17.108,34.854,13.463,30.355,13.463z M27.438,27.047h-2.392
	v2.391c0,0.576-0.467,1.047-1.046,1.047c-0.578,0-1.046-0.471-1.046-1.047v-2.391h-2.389c-0.578,0-1.046-0.467-1.046-1.046
	c0-0.576,0.468-1.045,1.046-1.045h2.389v-2.389c0-0.578,0.468-1.047,1.046-1.047c0.579,0,1.046,0.468,1.046,1.047v2.389h2.392
	c0.574,0,1.045,0.469,1.045,1.045C28.48,26.58,28.012,27.047,27.438,27.047z"/>
<path fill="#C35874" d="M34.723,14.74c0.815,1.509,1.279,3.236,1.277,5.072c0,3.11-1.72,5.488-1.72,5.488
	c-0.951,1.304-2.66,3.304-3.802,4.438l-8.103,8.107l0.04,0.04c0.869,0.872,2.295,0.872,3.164,0l8.703-8.701
	c0.869-0.871,2.174-2.396,2.896-3.393c0,0,1.315-1.814,1.315-4.187C38.498,18.717,36.99,16.186,34.723,14.74z"/>
</svg>
