<?xml version="1.0" encoding="utf-8"?>
<!-- Generator: Adobe Illustrator 16.0.4, SVG Export Plug-In . SVG Version: 6.00 Build 0)  -->
<!DOCTYPE svg PUBLIC "-//W3C//DTD SVG 1.1//EN" "http://www.w3.org/Graphics/SVG/1.1/DTD/svg11.dtd">
<svg version="1.1" id="Ebene_3_Kopie_Kopie" xmlns="http://www.w3.org/2000/svg" xmlns:xlink="http://www.w3.org/1999/xlink"
	 x="0px" y="0px" width="48px" height="48px" viewBox="0 0 48 48" enable-background="new 0 0 48 48" xml:space="preserve">
<path fill="#FFFFFF" d="M24,0C10.745,0,0,10.745,0,24s10.745,24,24,24s24-10.745,24-24S37.255,0,24,0L24,0z"/>
<path fill="#76DDD0" d="M24,0C10.745,0,0,10.745,0,24s10.745,24,24,24s24-10.745,24-24S37.255,0,24,0z M31.698,39.139
	c-0.548,0.467-1.121,0.903-1.755,1.271C28.139,41.449,26.084,42,24,42s-4.14-0.551-5.944-1.592
	c-0.634-0.366-1.209-0.805-1.756-1.271C10.789,36.32,7,30.602,7,24c0-8.512,6.294-15.562,14.468-16.79C22.094,6.458,23.008,6,24,6
	c0.99,0,1.902,0.458,2.529,1.209C34.705,8.438,41,15.488,41,24C41,30.602,37.21,36.323,31.698,39.139z"/>
<path fill="#FF6E53" d="M25.088,8.577C24.844,8.219,24.436,8,24,8s-0.844,0.215-1.088,0.574c-2.571,3.761-8.801,13.689-8.801,21.537
	c0,3.533,1.885,6.798,4.944,8.562c3.059,1.768,6.829,1.768,9.888,0c3.059-1.767,4.945-5.029,4.945-8.562
	C33.889,22.264,27.658,12.338,25.088,8.577z M27.791,28.381h-2.637v2.637c0,0.64-0.519,1.154-1.154,1.154
	c-0.637,0-1.154-0.517-1.154-1.154v-2.637h-2.637c-0.637,0-1.153-0.517-1.153-1.154c0-0.636,0.517-1.151,1.153-1.151h2.637v-2.637
	c0-0.637,0.517-1.154,1.154-1.154c0.637,0,1.154,0.517,1.154,1.154v2.637h2.637c0.637,0,1.152,0.517,1.152,1.151
	C28.943,27.864,28.428,28.381,27.791,28.381z"/>
<path fill="#DF6049" d="M33.471,26.382c-0.15,4.297-2.484,8.23-6.222,10.394c-2.769,1.598-5.998,2.03-9.03,1.339
	c0.271,0.195,0.543,0.391,0.836,0.56c3.059,1.768,6.829,1.768,9.888,0c3.059-1.767,4.945-5.029,4.945-8.562
	C33.889,28.908,33.729,27.653,33.471,26.382z"/>
</svg>
