<?xml version="1.0" encoding="utf-8"?>
<!-- Generator: Adobe Illustrator 16.0.4, SVG Export Plug-In . SVG Version: 6.00 Build 0)  -->
<!DOCTYPE svg PUBLIC "-//W3C//DTD SVG 1.1//EN" "http://www.w3.org/Graphics/SVG/1.1/DTD/svg11.dtd">
<svg version="1.1" id="Ebene_3_Kopie" xmlns="http://www.w3.org/2000/svg" xmlns:xlink="http://www.w3.org/1999/xlink" x="0px"
	 y="0px" width="48px" height="48px" viewBox="0 0 48 48" enable-background="new 0 0 48 48" xml:space="preserve">
<path fill="#76DDD0" d="M24,7c9.374,0,17,7.626,17,17s-7.626,17-17,17S7,33.374,7,24S14.626,7,24,7 M24,0C10.745,0,0,10.745,0,24
	s10.745,24,24,24s24-10.745,24-24S37.255,0,24,0L24,0z"/>
<path fill="#55ACEE" d="M37,18.553c-0.886,0.395-1.83,0.664-2.829,0.783c1.021-0.609,1.798-1.582,2.169-2.73
	c-0.955,0.564-2.01,0.979-3.13,1.195c-0.897-0.959-2.18-1.553-3.593-1.553c-2.719,0-4.924,2.205-4.924,4.924
	c0,0.391,0.045,0.766,0.125,1.123c-4.089-0.207-7.717-2.162-10.148-5.148c-0.424,0.727-0.663,1.578-0.663,2.479
	c0,1.709,0.869,3.215,2.187,4.1c-0.804-0.025-1.568-0.25-2.229-0.613c0,0.021,0,0.035,0,0.057c0,2.387,1.701,4.379,3.953,4.828
	c-0.417,0.113-0.855,0.178-1.303,0.178c-0.312,0-0.62-0.037-0.923-0.092c0.62,1.953,2.442,3.379,4.597,3.422
	c-1.686,1.316-3.812,2.107-6.115,2.107c-0.398,0-0.792-0.023-1.174-0.068c2.18,1.393,4.764,2.209,7.548,2.209
	c9.053,0,14.011-7.502,14.011-14.012c0-0.211-0.003-0.424-0.018-0.635C35.503,20.416,36.342,19.549,37,18.553z"/>
</svg>
