<?xml version="1.0" encoding="utf-8"?>
<!-- Generator: Adobe Illustrator 16.0.4, SVG Export Plug-In . SVG Version: 6.00 Build 0)  -->
<!DOCTYPE svg PUBLIC "-//W3C//DTD SVG 1.1//EN" "http://www.w3.org/Graphics/SVG/1.1/DTD/svg11.dtd">
<svg version="1.1" id="Ebene_3_Kopie" xmlns="http://www.w3.org/2000/svg" xmlns:xlink="http://www.w3.org/1999/xlink" x="0px"
	 y="0px" width="48px" height="48px" viewBox="0 0 48 48" enable-background="new 0 0 48 48" xml:space="preserve">
<path fill="#76DDD0" d="M36.739,41.796l-3.362-1.116c-0.604-0.151-1.219-0.28-1.733-0.379c-0.946,0.443-1.924,0.802-2.921,1.068
	C27.173,41.788,25.584,42,24,42c-4.803,0-9.323-1.871-12.729-5.271C7.872,33.333,6,28.812,6,24s1.872-9.333,5.269-12.728
	C14.666,7.873,19.188,6,24,6c4.813,0,9.334,1.873,12.731,5.273C40.129,14.677,42,19.196,42,24c0,1.579-0.212,3.167-0.629,4.715
	c-0.262,0.979-0.611,1.939-1.044,2.87l0.404,1.989c0.25,0.896,0.817,2.486,1.022,3.045l0.907,2.467C45.998,34.964,48,29.717,48,24
	C48,10.745,37.255,0,24,0S0,10.745,0,24s10.745,24,24,24c5.752,0,11.029-2.025,15.163-5.399L36.739,41.796z"/>
<g>
	<defs>
		<path id="SVGID_1_" d="M36.127,31.004c0.592-1.029,1.066-2.15,1.381-3.324C37.823,26.508,38,25.271,38,24
			c0-3.869-1.572-7.369-4.1-9.9C31.369,11.565,27.869,10,24,10s-7.369,1.565-9.901,4.099C11.565,16.631,10,20.131,10,24
			s1.565,7.369,4.099,9.9C16.631,36.428,20.131,38,24,38c1.271,0,2.508-0.176,3.68-0.492c1.174-0.314,2.295-0.787,3.323-1.381
			c0,0,1.792,0.273,3.497,0.711L38,38c0,0-0.83-2.256-1.162-3.5L36.127,31.004z"/>
	</defs>
	<clipPath id="SVGID_2_">
		<use xlink:href="#SVGID_1_"  overflow="visible"/>
	</clipPath>
	<g clip-path="url(#SVGID_2_)">
		<rect x="10" y="10" fill="#1D2B36" width="28" height="9.333"/>
		<rect x="10" y="19.334" fill="#FF6E53" width="28" height="9.332"/>
		<rect x="10" y="28.666" fill="#FFD165" width="28" height="9.334"/>
	</g>
</g>
</svg>
