<svg xmlns="http://www.w3.org/2000/svg" width="16" height="16" viewBox="17.001 16.988 16 16" enable-background="new 17.001 16.988 16 16"><path fill="#829099" d="M28.336 22.991h-2.001v-4.002h-2.668v4.002h-2.001l3.335 3.335 3.335-3.335zm2.893 4.357c-.14-.149-1.074-1.149-1.342-1.41-.177-.173-.429-.278-.694-.278h-1.172l2.044 1.996h-2.364c-.068 0-.13.035-.16.089l-.544 1.25h-3.992l-.544-1.25c-.03-.054-.092-.089-.16-.089h-2.364l2.043-1.996h-1.171c-.265 0-.518.105-.695.278-.267.262-1.202 1.262-1.342 1.41-.326.348-.505.624-.42.967l.374 2.05c.085.343.461.624.835.624h10.88c.375 0 .75-.281.836-.624l.374-2.05c.084-.343-.094-.62-.422-.967z"/></svg>