<?xml version="1.0" encoding="utf-8"?>
<!-- Generator: Adobe Illustrator 16.0.4, SVG Export Plug-In . SVG Version: 6.00 Build 0)  -->
<!DOCTYPE svg PUBLIC "-//W3C//DTD SVG 1.1//EN" "http://www.w3.org/Graphics/SVG/1.1/DTD/svg11.dtd">
<svg version="1.1" id="Ebene_3_Kopie" xmlns="http://www.w3.org/2000/svg" xmlns:xlink="http://www.w3.org/1999/xlink" x="0px"
	 y="0px" width="48px" height="48px" viewBox="0 0 48 48" enable-background="new 0 0 48 48" xml:space="preserve">
<path display="none" fill="#76DDD0" d="M24,7c9.374,0,17,7.626,17,17s-7.626,17-17,17S7,33.374,7,24S14.626,7,24,7 M24,0
	C10.745,0,0,10.745,0,24s10.745,24,24,24s24-10.745,24-24S37.255,0,24,0L24,0z"/>
<path fill="#FFFFFF" d="M24,0C10.745,0,0,10.745,0,24s10.745,24,24,24s24-10.745,24-24S37.255,0,24,0L24,0z"/>
<path fill="#FFD165" d="M28.811,8.893c-0.216,0.009-0.436,0.102-0.591,0.259L10.836,26.525c-0.166,0.164-0.263,0.4-0.263,0.632
	c0,0.229,0.097,0.464,0.263,0.632l1.003,0.991l-2.94,2.948c1.585,3.086,4.081,5.621,7.14,7.252l3.002-2.994l0.992,0.996
	c0.354,0.35,0.907,0.35,1.262,0l17.377-17.38c0.155-0.152,0.253-0.365,0.266-0.583l0.389-9.031l7.402-7.403
	C46.905,2.402,47,2.165,47,1.931c-0.002-0.239-0.098-0.476-0.271-0.658c-0.362-0.363-0.941-0.363-1.312,0L38.1,8.594L28.811,8.893z
	 M22.927,33.364c-0.352,0.338-0.909,0.338-1.253,0l-4.552-4.544c-0.339-0.354-0.337-0.906,0-1.262c0.352-0.34,0.906-0.34,1.262,0
	l4.543,4.543c0.178,0.176,0.264,0.406,0.264,0.629C23.19,32.962,23.105,33.188,22.927,33.364z M26.466,29.827
	c-0.354,0.347-0.907,0.347-1.264,0L22.94,27.55c-0.355-0.341-0.355-0.901,0-1.251c0.335-0.349,0.906-0.349,1.243,0l2.282,2.276
	c0.17,0.165,0.252,0.401,0.252,0.62C26.718,29.434,26.636,29.65,26.466,29.827z M29.998,26.286c-0.35,0.356-0.9,0.356-1.258,0
	l-4.543-4.545c-0.351-0.344-0.351-0.908,0-1.246c0.347-0.351,0.908-0.351,1.248,0l4.553,4.549c0.164,0.168,0.25,0.396,0.25,0.619
	C30.248,25.893,30.162,26.114,29.998,26.286z M33.525,22.751c-0.338,0.35-0.902,0.35-1.246,0l-2.28-2.264
	c-0.334-0.355-0.334-0.907,0-1.263c0.354-0.335,0.909-0.335,1.267,0l2.26,2.278c0.178,0.176,0.266,0.391,0.266,0.633
	C33.789,22.352,33.7,22.587,33.525,22.751z M37.062,19.225c-0.338,0.34-0.91,0.34-1.242,0l-4.551-4.553
	c-0.353-0.344-0.353-0.909,0-1.252c0.34-0.345,0.9-0.345,1.25,0l4.543,4.545c0.178,0.18,0.266,0.398,0.266,0.632
	C37.328,18.814,37.238,19.053,37.062,19.225z"/>
<path fill="#76DDD0" d="M42.91,9.23l-1.622,1.622l-0.354,8.275c-0.021,0.427-0.146,0.832-0.345,1.198C40.852,21.51,41,22.737,41,24
	c0,9.374-7.626,17-17,17c-0.548,0-1.089-0.031-1.624-0.082C22,40.881,21.63,40.82,21.261,40.759
	c-0.137-0.022-0.276-0.038-0.412-0.063c-0.475-0.092-0.942-0.2-1.402-0.33c-0.016-0.008-0.033-0.01-0.049-0.016
	c-0.483-0.138-0.958-0.295-1.424-0.474l0,0c-4.613-1.757-8.259-5.46-9.944-10.106l0,0c-0.157-0.434-0.295-0.873-0.418-1.318
	c-0.015-0.059-0.029-0.112-0.043-0.168c-0.106-0.399-0.198-0.807-0.276-1.217C7.26,26.886,7.237,26.703,7.21,26.52
	c-0.048-0.309-0.097-0.617-0.127-0.932C7.032,25.064,7,24.536,7,24c0-9.374,7.626-17,17-17c1.143,0,2.256,0.117,3.334,0.333
	c0.421-0.258,0.905-0.418,1.411-0.439l8.498-0.273l1.528-1.529C34.697,1.905,29.573,0,24,0C10.745,0,0,10.745,0,24s10.745,24,24,24
	s24-10.745,24-24C48,18.428,46.096,13.304,42.91,9.23z"/>
<g>
	<path fill="#DFB758" d="M16.039,38.98l2.985-2.978c-3.047-1.627-5.595-4.136-7.18-7.206l-0.005-0.017l-2.94,2.948
		C10.484,34.814,12.98,37.35,16.039,38.98z"/>
</g>
</svg>
