<?xml version="1.0" encoding="utf-8"?>
<!-- Generator: Adobe Illustrator 16.0.4, SVG Export Plug-In . SVG Version: 6.00 Build 0)  -->
<!DOCTYPE svg PUBLIC "-//W3C//DTD SVG 1.1//EN" "http://www.w3.org/Graphics/SVG/1.1/DTD/svg11.dtd">
<svg version="1.1" id="Ebene_3_Kopie" xmlns="http://www.w3.org/2000/svg" xmlns:xlink="http://www.w3.org/1999/xlink" x="0px"
	 y="0px" width="48px" height="48px" viewBox="0 0 48 48" enable-background="new 0 0 48 48" xml:space="preserve">
<rect x="11" y="30" fill="#FFD165" width="26" height="12"/>
<path fill="#76DDD0" d="M24,7c9.374,0,17,7.626,17,17s-7.626,17-17,17S7,33.374,7,24S14.626,7,24,7 M24,0C10.745,0,0,10.745,0,24
	s10.745,24,24,24s24-10.745,24-24S37.255,0,24,0L24,0z"/>
<path fill="#FFD165" d="M28.946,11H12c-0.55,0-1,0.45-1,1v19.983h26v-12.93L28.946,11z"/>
<path fill="#ECB94B" d="M37,19.054l-7.983-7.983v7.047c0,0.55,0.45,1,1,1H37V19.054z"/>
<g>
	<path fill="#9F7F34" d="M31,26.008v0.156c0,1.721-0.24,2.928-0.721,3.621c-0.48,0.695-1.205,1.039-2.174,1.039
		c-0.469,0-0.869-0.074-1.197-0.225c-0.328-0.152-0.539-0.301-0.633-0.447l-0.141-0.234c-0.918,0.594-1.791,0.893-2.621,0.893
		c-0.828,0-1.488-0.291-1.986-0.869c-0.494-0.578-0.742-1.568-0.742-2.973c0-1.4,0.229-2.426,0.688-3.072s1.252-0.971,2.377-0.971
		c0.418,0,0.867,0.094,1.348,0.279l0.248,0.109v-0.219h1.693v2.881c0,1.586,0.049,2.547,0.154,2.893
		c0.029,0.125,0.088,0.236,0.174,0.33c0.082,0.094,0.166,0.15,0.256,0.17c0.088,0.021,0.242,0.033,0.461,0.033
		s0.412-0.074,0.578-0.219c0.355-0.324,0.533-1.33,0.533-3.02v-0.172c0-1.783-0.406-3.076-1.215-3.881
		c-0.805-0.803-2.113-1.203-3.916-1.203c-1.805,0-3.168,0.484-4.092,1.455c-0.922,0.969-1.383,2.453-1.383,4.449
		c0,1.998,0.422,3.449,1.275,4.35c0.85,0.9,2.254,1.354,4.215,1.354l2.236-0.143l0.078,1.486C25.535,33.953,24.764,34,24.18,34
		c-1.197,0-2.227-0.117-3.082-0.352s-1.596-0.629-2.221-1.182C17.625,31.373,17,29.449,17,26.695c0-2.451,0.627-4.275,1.885-5.475
		c1.256-1.201,3.025-1.799,5.311-1.799C28.73,19.422,31,21.617,31,26.008z M23.771,29.324c0.441,0,1.033-0.178,1.785-0.533
		c-0.074-0.418-0.111-1.121-0.111-2.113v-2.031c-0.521-0.156-0.938-0.234-1.25-0.234c-0.666,0-1.115,0.188-1.346,0.57
		c-0.23,0.381-0.344,1.02-0.344,1.914C22.506,28.516,22.928,29.324,23.771,29.324z"/>
</g>
</svg>
