<?xml version="1.0" encoding="utf-8"?>
<!-- Generator: Adobe Illustrator 16.0.4, SVG Export Plug-In . SVG Version: 6.00 Build 0)  -->
<!DOCTYPE svg PUBLIC "-//W3C//DTD SVG 1.1//EN" "http://www.w3.org/Graphics/SVG/1.1/DTD/svg11.dtd">
<svg version="1.1" xmlns="http://www.w3.org/2000/svg" xmlns:xlink="http://www.w3.org/1999/xlink" x="0px" y="0px" width="48px"
	 height="48px" viewBox="0 0 48 48" enable-background="new 0 0 48 48" xml:space="preserve">
<g id="Ebene_3_Kopie">
	<path fill="#FFFFFF" d="M48,24C48,10.745,37.255,0,24,0l0,0C10.745,0,0,10.745,0,24"/>
	<path display="none" fill="#76DDD0" d="M24,7c9.374,0,17,7.626,17,17s-7.626,17-17,17S7,33.374,7,24S14.626,7,24,7 M24,0
		C10.745,0,0,10.745,0,24s10.745,24,24,24s24-10.745,24-24S37.255,0,24,0L24,0z"/>
	<path fill="#76DDD0" d="M42.962,9.296c-0.014,2.762-0.025,6.162-0.025,9.531c0.002,11.394-8.792,23.971-18.451,26.388L24,45.337
		l-0.485-0.121C13.85,42.798,5.05,30.221,5.051,18.827c0.001-3.366-0.008-6.762-0.02-9.522C1.881,13.366,0,18.462,0,24
		c0,13.255,10.745,24,24,24s24-10.745,24-24C48,18.458,46.116,13.359,42.962,9.296z"/>
	<path fill="#0A95CC" d="M41,3.218C33.667,0.707,24.476,0,24,0c-0.528,0-9.667,0.707-17,3.218c0,0,0.054,7.835,0.051,15.61
		C7.05,29.662,15.39,41.121,24,43.275c8.61-2.154,16.938-13.613,16.937-24.447C40.936,11.054,41,3.218,41,3.218z"/>
	<path fill="#FFFFFF" d="M9.955,5.566c6.059-2.074,14.044-2.6,14.044-2.6V7c-5.791,0-10.909,2.916-13.98,7.351
		C10,9.542,9.955,5.566,9.955,5.566z M24,2.966v35.803c7.113-1.78,13.974-11.358,13.972-20.308
		c-0.001-6.422,0.072-12.895,0.072-12.895C31.985,3.492,24,2.966,24,2.966z"/>
	<path display="none" fill="#0982B2" d="M28.973,36.254c-1.583,1.205-3.27,2.088-4.973,2.515V37c-6.898,0-12.838-4.137-15.5-10.054
		c2.754,7.881,9.051,14.716,15.5,16.329c6.419-1.606,12.677-8.385,15.447-16.22C37.438,31.436,33.636,34.825,28.973,36.254z"/>
	<path fill="#0982B2" d="M35.702,34.3C32.651,37.204,28.535,39,24,39c-4.542,0-8.665-1.801-11.717-4.714
		c3.163,4.498,7.406,7.91,11.717,8.989C28.308,42.197,32.544,38.791,35.702,34.3z"/>
	<path display="none" fill="#FFFFFF" d="M24-2C23.227-2,13.82-1.232,6.352,1.326L4.99,1.792L5,3.232
		c0,0.078,0.054,7.917,0.051,15.595C5.05,30.221,13.85,42.798,23.515,45.216L24,45.337l0.485-0.121
		c9.659-2.417,18.453-14.994,18.451-26.388C42.936,11.151,42.999,3.313,43,3.235l0.012-1.441l-1.363-0.467
		C34.18-1.232,24.772-2,24-2L24-2z"/>
	<path fill="#76DDD0" d="M42.366,24c-2.091,9.769-9.672,19.162-17.881,21.216L24,45.337l-0.485-0.121
		C15.301,43.161,7.715,33.768,5.622,24H0c0,13.255,10.745,24,24,24s24-10.745,24-24H42.366z"/>
	<path fill="#76DDD0" d="M24,41c-9.374,0-16.125-7.5-19-17H0c0,13.255,10.745,24,24,24l0,0c13.255,0,24-10.745,24-24h-5
		C39.674,33.221,33.374,41,24,41"/>
	<path display="none" fill="#76DDD0" d="M24,41c-9.374,0-17-7.626-17-17H0c0,13.255,10.745,24,24,24l0,0c13.255,0,24-10.745,24-24
		h-7C41,33.374,33.374,41,24,41"/>
</g>
<g id="Ebene_2" display="none">
	<path display="inline" fill="#FFFFFF" d="M24,0C10.745,0,0,10.745,0,24s10.745,24,24,24s24-10.745,24-24S37.255,0,24,0L24,0z"/>
	<path display="inline" fill="#76DDD0" d="M46.371,15.31c-0.438,0.769-0.982,1.488-1.631,2.137l-3.961,3.96
		C40.911,22.254,41,23.116,41,24c0,9.374-7.626,17-17,17c-0.468,0-0.929-0.033-1.387-0.07c-0.406-0.037-0.809-0.088-1.207-0.146l0,0
		c-7.297-1.124-13.063-6.895-14.188-14.188c-0.061-0.396-0.111-0.801-0.149-1.203C7.033,24.93,7,24.469,7,24c0-9.374,7.626-17,17-17
		c0.884,0,1.745,0.088,2.593,0.219l3.964-3.964c0.647-0.645,1.371-1.183,2.146-1.622C30.002,0.583,27.07,0,24,0
		C10.745,0,0,10.745,0,24s10.745,24,24,24s24-10.745,24-24C48,20.934,47.419,18.005,46.371,15.31z"/>
	<path display="inline" fill="#0A95CC" d="M45.109,7.165c1.183-1.182,1.183-3.098,0-4.28C44.538,2.313,43.784,2,42.973,2
		c-0.801,0-1.563,0.312-2.139,0.886c-0.027,0.022-0.046,0.052-0.072,0.076c-0.984-0.414-2.058-0.634-3.127-0.634
		c-2.14,0-4.152,0.835-5.666,2.344L7.73,28.912c1.642,5.429,5.929,9.716,11.358,11.357l24.238-24.237
		c2.311-2.31,2.974-5.804,1.718-8.799C45.062,7.212,45.092,7.188,45.109,7.165z M30.566,12.739l-7.94,7.932
		c-0.169,0.181-0.401,0.271-0.636,0.271c-0.243,0-0.476-0.102-0.646-0.271c-0.357-0.348-0.357-0.923,0-1.28l7.932-7.937
		c0.183-0.17,0.402-0.266,0.646-0.266s0.465,0.097,0.645,0.266C30.915,11.807,30.915,12.382,30.566,12.739z M34.977,8.32
		l-2.175,2.174c-0.169,0.175-0.392,0.267-0.636,0.267c-0.242,0-0.475-0.092-0.646-0.266c-0.168-0.17-0.26-0.397-0.26-0.641
		s0.092-0.472,0.26-0.642l2.176-2.174c0.173-0.176,0.402-0.267,0.646-0.267c0.243,0,0.467,0.092,0.637,0.267
		C35.335,7.392,35.334,7.968,34.977,8.32z"/>
	<g display="inline">
		<path fill="#0982B2" d="M10.73,25.912l-3,3c1.642,5.429,5.929,9.716,11.358,11.357l3-3C16.659,35.628,12.372,31.341,10.73,25.912z
			"/>
	</g>
</g>
</svg>
