<?xml version="1.0" encoding="utf-8"?>
<!-- Generator: Adobe Illustrator 16.0.4, SVG Export Plug-In . SVG Version: 6.00 Build 0)  -->
<!DOCTYPE svg PUBLIC "-//W3C//DTD SVG 1.1//EN" "http://www.w3.org/Graphics/SVG/1.1/DTD/svg11.dtd">
<svg version="1.1" id="Ebene_1" xmlns="http://www.w3.org/2000/svg" xmlns:xlink="http://www.w3.org/1999/xlink" x="0px" y="0px"
	 width="48px" height="56px" viewBox="0 0 48 56" enable-background="new 0 0 48 56" xml:space="preserve">
<path fill="#76DDD0" d="M23.929,0C10.654,0,0,10.76,0,24.033c0,12.173,8.896,22.225,20.896,23.809v-7.079
	c-8-1.455-13.972-8.396-13.972-16.729c0-9.387,7.622-17.023,17.01-17.023c9.386,0,17.016,7.637,17.016,17.023
	c0,2.498-0.559,4.866-1.529,7.006l5.742,4.316c1.806-3.374,2.81-7.228,2.81-11.322C47.972,10.76,37.2,0,23.929,0z"/>
<path fill="#76DDD0" d="M23.919,18.024c3.316,0,6.008,2.691,6.008,6.009c0,3.316-2.691,6.008-6.008,6.008
	c-3.317,0-6.009-2.691-6.009-6.008C17.91,20.716,20.602,18.024,23.919,18.024"/>
<polyline fill="#DF6585" points="23.68,23.031 43.946,38.231 35.38,39.713 41.705,52.39 36.33,55.075 30.005,42.4 23.68,48.364 
	23.68,23.031 "/>
<polyline fill="#C35874" points="23.68,23.031 41.705,52.39 36.33,55.075 30.005,42.4 23.68,48.364 23.68,23.031 "/>
</svg>
