<?xml version="1.0" encoding="utf-8"?>
<!-- Generator: Adobe Illustrator 16.0.4, SVG Export Plug-In . SVG Version: 6.00 Build 0)  -->
<!DOCTYPE svg PUBLIC "-//W3C//DTD SVG 1.1//EN" "http://www.w3.org/Graphics/SVG/1.1/DTD/svg11.dtd">
<svg version="1.1" id="Ebene_1" xmlns="http://www.w3.org/2000/svg" xmlns:xlink="http://www.w3.org/1999/xlink" x="0px" y="0px"
	 width="48px" height="48px" viewBox="0 0 48 48" enable-background="new 0 0 48 48" xml:space="preserve">
<g id="Ebene_1_1_" display="none">
	<path display="inline" fill="#FFFFFF" d="M0,24c0,13.255,10.745,24,24,24s24-10.745,24-24"/>
	<g display="inline">
		<path fill="#76DDD0" d="M10.868,10.132c1.457-0.688,2.42-1.142,3.523-1.142h0.001c0.456,0,0.865,0.087,1.243,0.227
			C18.108,7.813,20.959,7,24,7c3.02,0,5.852,0.8,8.312,2.186c0.394-0.152,0.817-0.249,1.295-0.249c1.104,0,2.066,0.454,3.523,1.142
			c1.611,0.76,4.115,1.94,8.319,3.161C41.506,5.39,33.385,0,24,0C14.59,0,6.45,5.418,2.517,13.302
			C6.74,12.079,9.253,10.895,10.868,10.132z"/>
		<path fill="#76DDD0" d="M44.243,19.616c-0.575,0-1.146-0.076-1.708-0.225c-0.516,0.353-1.192,0.678-1.98,0.798
			C40.836,21.417,41,22.688,41,24c0,9.374-7.626,17-17,17S7,33.374,7,24c0-1.284,0.155-2.53,0.426-3.733
			c-0.798-0.119-1.476-0.45-1.991-0.814c-0.552,0.145-1.113,0.217-1.678,0.217c-1.273,0-2.35-0.368-3.201-0.806
			C0.195,20.52,0,22.237,0,24c0,13.255,10.745,24,24,24s24-10.745,24-24c0-1.78-0.199-3.513-0.566-5.183
			C46.583,19.251,45.51,19.616,44.243,19.616z"/>
	</g>
	<g display="inline">
		<path fill="#4CB1D9" d="M31.537,12.3c-2.939,3.421-5.186,3.688-5.186,3.688l-0.16,5.398c4.33,1.604,7.27-1.816,7.27-1.816
			c2.619,1.709,5.452-1.604,5.452-1.604c1.711,0.962,3.207-0.855,3.207-0.855c3.313,1.604,5.88-1.122,5.88-1.122
			C33.995,12.567,34.477,8.879,31.537,12.3z"/>
		<path fill="#4CB1D9" d="M21.809,21.441l-0.16-5.4c0,0-2.191-0.267-5.186-3.688c-2.94-3.42-2.458,0.268-16.463,3.689
			c0,0,2.566,2.727,5.88,1.123c0,0,1.443,1.871,3.207,0.855c0,0,2.833,3.314,5.452,1.656C14.539,19.623,17.479,22.99,21.809,21.441z
			"/>
		<path fill="#429BBE" d="M23.518,40.977C23.679,40.98,23.837,41,24,41c0.177,0,0.348-0.021,0.523-0.025l0.062-0.771
			c-0.374-0.106-0.748-0.162-1.122-0.269L23.518,40.977z"/>
		<path fill="#429BBE" d="M25.336,15.08c1.123-0.48,1.926-1.604,1.926-2.939c0-1.817-1.443-3.261-3.262-3.261
			c-1.818,0-3.261,1.497-3.261,3.261c0,1.282,0.802,2.405,1.925,2.939l0.48,15.34c0.535-0.16,1.123-0.268,1.711-0.373"/>
		<path fill="#429BBE" d="M24.643,37.209l0.105-3.422c-0.428,0.055-0.854,0.162-1.229,0.215c-0.106,0-0.16,0.053-0.267,0.053
			l0.106,2.779C23.786,36.941,24.214,37.102,24.643,37.209z"/>
		<path fill="#67C1B6" d="M18.174,32.238c0.054-0.055,0.106-0.055,0.106-0.107c0,0,0,0,0.054,0c0.16-0.16,0.321-0.268,0.321-0.268
			c0.32-0.213,0.588-0.32,0.854-0.428c0.107-0.055,0.214-0.055,0.321-0.105c0.267-0.107,0.48-0.162,0.694-0.215
			c0.107-0.053,0.214-0.053,0.321-0.107c0.428-0.105,0.854-0.213,1.229-0.32c-0.214-0.053-0.375-0.053-0.589-0.105
			c-0.534-0.104-1.068-0.213-1.604-0.32c-0.267-0.053-0.48-0.105-0.748-0.158l-0.374-0.107l-0.268-0.105
			c-0.694-0.268-1.068-0.643-1.176-1.016c-0.106-0.375,0-0.803,0.16-1.07c0.375-0.588,0.802-0.748,0.802-0.748
			c0.321,0.48,0.802,0.748,1.337,0.748c0.48,0,0.908-0.213,1.229-0.588c0.32-0.373,1.282-0.855,1.282-1.389
			c0-0.482-0.908-0.91-1.176-1.23c-0.214-0.428-0.694-0.748-1.283-0.748c-0.48,0-0.908,0.215-1.229,0.588c-0.054,0-0.161,0-0.214,0
			c-0.374,0.055-0.749,0.107-1.123,0.32c0,0-0.267,0.107-0.588,0.428c-0.374,0.27-0.802,0.748-1.176,1.498
			c-0.374,0.748-0.588,1.816-0.214,2.992c0.214,0.588,0.588,1.123,1.069,1.551c0.106,0.107,0.267,0.213,0.374,0.32
			c0.106,0.107,0.268,0.16,0.428,0.213c0.267,0.162,0.588,0.268,0.855,0.375C17.96,32.184,18.066,32.184,18.174,32.238z"/>
		<path fill="#67C1B6" d="M31.537,25.182c-0.321-0.32-0.588-0.373-0.588-0.428c-0.375-0.213-0.803-0.266-1.123-0.32
			c-0.055,0-0.16,0-0.215,0c-0.319-0.373-0.748-0.588-1.229-0.588c-0.532,0-1.067,0.32-1.39,0.748
			c-0.215,0.32-1.178,0.748-1.178,1.23c0,0.533,1.018,1.068,1.283,1.389c0.32,0.375,0.748,0.588,1.229,0.588
			c0.534,0,1.015-0.32,1.336-0.748c0,0,0.428,0.16,0.802,0.748c0.16,0.322,0.268,0.695,0.16,1.07
			c-0.105,0.373-0.428,0.748-1.176,1.016l-0.268,0.105L28.811,30.1c-0.268,0.053-0.479,0.107-0.748,0.16
			c-0.533,0.107-1.067,0.215-1.604,0.32c-0.268,0.055-0.48,0.107-0.748,0.162c-0.214,0.053-0.428,0.053-0.589,0.105h-0.054
			c-0.534,0.105-1.015,0.215-1.55,0.318c-0.16,0.057-0.374,0.105-0.534,0.105c-0.642,0.16-1.229,0.27-1.871,0.48
			c-0.32,0.107-0.641,0.162-0.962,0.322c-0.374,0.16-0.694,0.268-1.069,0.48c-0.214,0.105-0.694,0.479-0.962,0.854
			c-0.267,0.373-0.48,0.801-0.534,1.281c-0.16,0.961,0.268,1.816,0.802,2.459c0.268,0.32,0.588,0.59,0.962,0.803
			c0.32,0.215,0.855,0.375,1.123,0.428c0.641,0.16,1.282,0.32,1.924,0.479c0.106,0,0.16,0.057,0.268,0.057
			c0.962,0.213,1.87,0.429,2.778,0.643c0.215,0.055,0.429,0.105,0.643,0.158c0.053,0,0.32,0.107,0.374,0.16
			c0.054,0.057,0.16,0.105,0.214,0.16c0.105,0.105,0.215,0.27,0.215,0.428c0.014,0.085,0.004,0.178-0.021,0.271
			c0.339-0.058,0.674-0.123,1.005-0.199c0.013-0.111,0.04-0.215,0.032-0.336c0-0.428-0.215-0.855-0.534-1.178
			c-0.16-0.16-0.32-0.268-0.534-0.373c-0.214-0.107-0.27-0.16-0.48-0.215c-0.319-0.105-0.693-0.16-1.017-0.268
			c-0.854-0.27-1.764-0.535-2.672-0.803c-0.054,0-0.054,0-0.107-0.055c-0.588-0.16-1.176-0.375-1.764-0.48
			c-0.374-0.104-0.534-0.16-0.695-0.32c-0.214-0.105-0.374-0.318-0.534-0.479c-0.32-0.375-0.428-0.855-0.374-1.23
			c0.054-0.16,0.106-0.32,0.268-0.48c0.053-0.053,0.106-0.158,0.213-0.158c0.054-0.055,0.214-0.16,0.321-0.213
			c0.16-0.107,0.481-0.162,0.694-0.27c0.268-0.105,0.589-0.16,0.855-0.215c0.588-0.16,1.229-0.268,1.817-0.373
			c1.176-0.215,2.353-0.375,3.475-0.535c0.588-0.105,1.122-0.16,1.657-0.213c0.267-0.055,0.532-0.107,0.802-0.107l0.374-0.055
			c0.214-0.053,0.319-0.104,0.479-0.104c0.32-0.105,0.588-0.16,0.854-0.375c0.16-0.055,0.269-0.16,0.429-0.215
			c0.106-0.105,0.269-0.215,0.373-0.32c0.535-0.426,0.855-0.961,1.069-1.549c0.374-1.178,0.16-2.246-0.214-2.994
			C32.339,25.93,31.857,25.449,31.537,25.182z"/>
	</g>
	<path display="inline" fill="#76DDD0" d="M41,24c0,9.374-7.626,17-17,17S7,33.374,7,24H0c0,13.255,10.745,24,24,24s24-10.745,24-24
		H41z"/>
</g>
<g id="Ebene_1_Kopie" display="none">
	<path display="inline" fill="#FFFFFF" d="M24,0C10.745,0,0,10.745,0,24s10.745,24,24,24s24-10.745,24-24S37.255,0,24,0L24,0z"/>
	<path display="inline" fill="#76DDD0" d="M24,7c9.374,0,17,7.626,17,17s-7.626,17-17,17S7,33.374,7,24S14.626,7,24,7 M24,0
		C10.745,0,0,10.745,0,24s10.745,24,24,24s24-10.745,24-24S37.255,0,24,0L24,0z"/>
	<path display="inline" fill="#0A95CC" d="M37.701,27.479L31.854,24l5.851-3.479c0.289-0.171,0.387-0.549,0.212-0.839l-3.479-5.847
		c-0.17-0.289-0.551-0.386-0.84-0.213l-5.582,3.32v-6.497c0-0.337-0.277-0.613-0.611-0.613H20.6c-0.338,0-0.613,0.276-0.613,0.613
		v6.496l-5.583-3.319c-0.291-0.172-0.668-0.076-0.84,0.213l-3.478,5.847c-0.172,0.29-0.076,0.668,0.214,0.84L16.147,24l-5.848,3.479
		c-0.29,0.17-0.385,0.554-0.213,0.84l3.478,5.849c0.172,0.291,0.549,0.385,0.84,0.214l5.583-3.318v6.494
		c0,0.34,0.275,0.612,0.613,0.612h6.802c0.336,0,0.611-0.272,0.611-0.612v-6.494l5.584,3.316c0.285,0.173,0.67,0.079,0.84-0.214
		l3.477-5.849C38.088,28.029,37.99,27.648,37.701,27.479z"/>
</g>
<g id="Ebene_1_Kopie_Kopie">
	<path display="none" fill="#76DDD0" d="M24,7c9.374,0,17,7.626,17,17s-7.626,17-17,17S7,33.374,7,24S14.626,7,24,7 M24,0
		C10.745,0,0,10.745,0,24s10.745,24,24,24s24-10.745,24-24S37.255,0,24,0L24,0z"/>
	<path fill="#FFFFFF" d="M24,0C10.745,0,0,10.745,0,24s10.745,24,24,24s24-10.745,24-24S37.255,0,24,0L24,0z"/>
	<g>
		<path fill="#76DDD0" d="M11.113,10.387c0.452,0.348,0.885,0.761,1.29,1.218C15.443,8.758,19.516,7,24,7c9.374,0,17,7.626,17,17
			c0,4.761-1.973,9.063-5.136,12.152c0.07,0.076,0.147,0.142,0.237,0.2c1.33,0.833,1.718,2.537,0.878,3.884
			c-0.046,0.073-0.095,0.144-0.146,0.211c1.175,0.6,2.446,0.938,3.7,0.939C45.13,37.015,48,30.845,48,24C48,10.745,37.255,0,24,0
			C16.133,0,9.15,3.785,4.773,9.634c0.796-0.383,1.652-0.588,2.523-0.588C8.624,9.046,9.937,9.504,11.113,10.387z"/>
		<path fill="#76DDD0" d="M32.194,44.063c-1.384-1.017-2.592-2.286-3.58-3.717C27.145,40.762,25.601,41,24,41
			c-7.797,0-14.368-5.283-16.364-12.452c-2.533-2.381-5.03-5.557-6.216-9.5c-0.209-0.704-0.33-1.383-0.384-2.036
			C0.365,19.224,0,21.569,0,24c0,13.255,10.745,24,24,24c3.814,0,7.419-0.895,10.622-2.478
			C33.781,45.114,32.965,44.633,32.194,44.063z"/>
	</g>
	<path fill="#DF6585" d="M46.881,33.598c-0.244-0.394-0.732-0.539-1.125-0.295c0,0-2.396,1.369-4.697,0.244
		c-1.516-0.732-2.836-2.201-3.963-3.473c-1.076-1.225-2.055-2.25-3.082-2.642c-2.055-0.782-4.402,0.146-5.431,0.685
		c-0.343-0.391-0.733-0.782-1.174-1.125c-0.832-0.587-1.763-0.979-2.69-1.125c-2.201-0.294-4.062-1.027-5.725-2.25
		c-2.495-1.859-4.159-4.551-5.92-7.437c-0.147-0.245-0.293-0.489-0.489-0.783c-0.293-0.489-0.587-0.93-0.881-1.419
		c-0.538-0.832-1.174-1.517-1.81-2.006c-1.566-1.174-3.376-1.223-4.844-0.196c-1.517,1.077-2.642,3.572-1.712,6.703
		c1.516,5.041,5.479,8.758,8.562,11.007c2.543,1.859,5.432,3.474,8.416,4.55h0.048c1.908,0.733,4.6,1.713,6.802,0.687
		c0.537,0.488,1.418,1.517,2.152,2.936c0.978,1.908,2.396,3.57,4.061,4.794c2.251,1.664,4.941,2.594,7.583,2.495
		c0.438,0.048,0.831-0.344,0.782-0.783c0-0.439-0.393-0.832-0.881-0.782c-3.963,0.146-8.17-2.446-10.127-6.36
		c-0.734-1.467-1.664-2.543-2.301-3.181c0.049-0.049,0.099-0.098,0.146-0.146c0.538,0,1.712,0.195,2.74,1.369
		c0.195,0.195,0.342,0.637,0.488,1.076c0.342,0.881,0.733,2.104,2.006,3.033c0.099,0.098,0.195,0.146,0.344,0.244
		c0.391,0.245,0.88,0.146,1.125-0.244c0.244-0.392,0.146-0.881-0.245-1.126c-0.978-0.635-1.319-1.516-1.614-2.396
		c-0.195-0.588-0.391-1.174-0.83-1.615c-1.027-1.174-2.154-1.662-3.035-1.859c0.783-0.242,2.545-0.586,3.621,0.245
		c0.979,0.734,1.32,1.321,1.713,1.957c0.342,0.538,0.685,1.125,1.369,1.664c0.344,0.293,0.881,0.244,1.174-0.147
		c0.295-0.391,0.246-0.881-0.146-1.174c-0.44-0.343-0.685-0.733-0.979-1.223c-0.392-0.686-0.93-1.518-2.151-2.447
		c-1.468-1.076-3.376-0.88-4.552-0.586c-0.049-0.294-0.146-0.588-0.243-0.882c0.979-0.44,2.69-1.026,4.012-0.538
		c0.687,0.245,1.517,1.225,2.446,2.202c1.271,1.37,2.689,2.983,4.501,3.815c3.131,1.517,6.165-0.244,6.262-0.342
		C46.979,34.479,47.125,33.988,46.881,33.598z M9.339,18.018l-1.781,0.525c-0.094,0.028-0.189,0.042-0.283,0.042
		c-0.432,0-0.83-0.282-0.958-0.718c-0.156-0.529,0.146-1.085,0.676-1.242L8.774,16.1c0.529-0.155,1.085,0.146,1.242,0.676
		C10.172,17.306,9.869,17.862,9.339,18.018z M13.461,23.598l-2,1.172c-0.159,0.094-0.333,0.138-0.504,0.138
		c-0.343,0-0.678-0.177-0.864-0.495c-0.279-0.477-0.119-1.089,0.357-1.368l2-1.172c0.475-0.28,1.089-0.12,1.368,0.357
		C14.098,22.706,13.938,23.318,13.461,23.598z M18.705,27.576l-1.017,1c-0.195,0.191-0.448,0.287-0.701,0.287
		c-0.259,0-0.517-0.101-0.713-0.299c-0.387-0.394-0.382-1.027,0.012-1.414l1.017-1c0.395-0.387,1.027-0.382,1.414,0.012
		S19.099,27.188,18.705,27.576z M24.199,29.823l-0.963,1.5c-0.191,0.298-0.514,0.46-0.843,0.46c-0.185,0-0.372-0.051-0.539-0.158
		c-0.465-0.299-0.6-0.917-0.301-1.382l0.963-1.5c0.298-0.465,0.918-0.6,1.381-0.301C24.362,28.74,24.497,29.358,24.199,29.823z"/>
	<path fill="#76DDD0" d="M41.374,40.558c2.394-2.511,4.248-5.54,5.378-8.901l-6.757-1.896c-0.86,2.382-2.236,4.517-3.996,6.271
		C35.931,36.099,41.374,40.558,41.374,40.558z"/>
	<circle fill="#C35874" cx="23" cy="15" r="4"/>
	<circle fill="#934358" cx="30.5" cy="21.5" r="2.5"/>
</g>
</svg>
