<svg xmlns="http://www.w3.org/2000/svg" width="144" height="191" viewBox="0 0 144 191"><circle fill-rule="evenodd" clip-rule="evenodd" fill="#84E0D5" cx="72" cy="84.588" r="72" enable-background="new"/><path fill="#76DDD0" d="M21.088 33.676c-28.118 28.118-28.118 73.706 0 101.824 28.118 28.117 73.706 28.117 101.824 0-19.093-19.092-69.297-69.296-101.824-101.824z" enable-background="new"/><g fill-rule="evenodd" clip-rule="evenodd"><path fill="#E55D45" d="M69.266 14.348l1.969 13.885.039.187c3.916-.296 7.943-.122 11.77.378 8.434 1.102 15.941 5.074 20.435 8.199l.089-.101 8.646-11.04 2.342-2.99c.367-2.57.786-5.517.908-6.61.102-.909.074-1.767-.342-2.604-.566-1.138-1.289-2.158-2.162-3.076-1.73-1.817-3.783-3.203-5.959-4.408-3.546-1.962-7.304-3.416-11.219-4.45-2.9-.765-5.842-1.31-8.836-1.56-3.121-.26-6.227-.25-9.299.439-1.548.347-3.026.891-4.33 1.82-.534.381-1.055.768-1.341 1.416-.868 1.967-1.784 3.911-2.667 5.872l-.532 1.197.489 3.446z"/><path fill="#FF6E53" d="M64.84 109.445l-.006-.017-.005-.016c-2.515-7.838-7.841-24.443-9.505-29.646-.617.488-1.232.979-1.844 1.475-3.672 2.984-7.326 5.991-10.746 9.264-2.092 2.002-4.168 4.027-6.137 6.147-2.328 2.506-4.57 5.093-6.779 7.704-3.24 3.834-6.412 7.727-9.625 11.587-2.071 2.488-4.167 4.956-6.24 7.442-.393.471-.838.888-.996 1.546-.779 3.259-10.971 41.081-10.987 41.179 18.824-16.673 54.632-48.162 63.199-55.691l-.329-.974zM81.699 59.674l.029.078 10.684 25.926c3.43-3.332 6.789-6.73 9.881-10.384 2.723-3.216 5.195-6.606 7.135-10.359.314-.606.651-1.229.799-1.884.339-1.498.595-3.016.83-4.533.257-1.651.481-3.308.666-4.968.209-1.867.367-3.739.529-5.611.146-1.688.273-3.378.4-5.069.146-1.947.277-3.896.428-5.842.121-1.559.26-3.116.397-4.672.151-1.715.292-3.43.468-5.142l-8.688 11.095-.89.999c-2.68 2.921-5.52 5.676-8.459 8.333-3.453 3.125-7.047 6.084-10.682 8.993-1.193.955-2.401 1.893-3.607 2.833l.08.207zM58.19 33.453c-.796 1.702-1.595 3.403-2.349 5.124-.668 1.531-1.303 3.078-1.906 4.636-.555 1.433-1.092 2.875-1.547 4.341-.201.641-.22 1.35-.25 2.031-.196 4.22.249 8.393.999 12.539.944 5.226 2.329 10.344 3.796 15.441.072.254 9.992 31.175 9.992 31.175s18.596 54.979 27.686 82.192c.035-.093 10.119-37.943 11.074-41.155.193-.647.016-1.232-.089-1.837-.554-3.189-1.132-6.374-1.683-9.564-.852-4.949-1.652-9.906-2.543-14.847-.607-3.366-1.256-6.729-2.019-10.062-.646-2.82-1.431-5.613-2.241-8.393-1.324-4.545-2.988-8.976-4.674-13.395-.498-1.303-1.016-2.596-1.535-3.89l-11.222-27.228-.106-.281c-.775-1.928-1.568-3.849-2.324-5.783-1.693-4.336-3.326-8.696-4.756-13.129-1.215-3.771-2.299-7.578-3.156-11.446-.098-.435-.182-.873-.273-1.312l-1.977-13.952c-.703 1.571-1.439 3.127-2.165 4.687-.659 1.417-1.317 2.835-1.991 4.245-.843 1.762-1.705 3.514-2.553 5.273-.735 1.527-1.471 3.054-2.188 4.59z"/></g></svg>