<svg xmlns="http://www.w3.org/2000/svg" width="16" height="16" viewBox="3 2.5 16 16" enable-background="new 3 2.5 16 16"><path fill="#829099" d="M5.334 7.833h11.333c.38 0 .319-.405.128-.471-.189-.067-2.295-.862-2.662-.862h-.466v-2h-5.334v2h-.466c-.367 0-2.472.795-2.661.863-.19.066-.252.47.128.47zm11.666.667h-12c-.367 0-.667.3-.667.667v3.333c0 .367.3.666.667.666h1.521l-.587 3.334h10.133l-.589-3.333h1.522c.367 0 .666-.299.666-.666v-3.334c.001-.367-.298-.667-.666-.667zm-9.599 6.667l.799-4.671h5.599l.8 4.671h-7.198z"/></svg>