<?xml version="1.0" encoding="utf-8"?>
<!-- Generator: Adobe Illustrator 16.0.4, SVG Export Plug-In . SVG Version: 6.00 Build 0)  -->
<!DOCTYPE svg PUBLIC "-//W3C//DTD SVG 1.1//EN" "http://www.w3.org/Graphics/SVG/1.1/DTD/svg11.dtd">
<svg version="1.1" id="Ebene_3_Kopie_Kopie" xmlns="http://www.w3.org/2000/svg" xmlns:xlink="http://www.w3.org/1999/xlink"
	 x="0px" y="0px" width="48px" height="48px" viewBox="0 0 48 48" enable-background="new 0 0 48 48" xml:space="preserve">
<path fill="#FFFFFF" d="M24,0C10.745,0,0,10.745,0,24s10.745,24,24,24s24-10.745,24-24S37.255,0,24,0L24,0z"/>
<path fill="#76DDD0" d="M45.97,14.339c-0.153,1.629-1.331,2.614-2.139,3.274c-0.79,0.646-1.039,0.904-1.06,1.261
	c-0.08,1.391-0.188,3.187-1.799,4.603C40.979,23.652,41,23.823,41,24c0,9.374-7.626,17-17,17c-2.774,0-5.388-0.682-7.704-1.865
	c-0.919,0.68-2.012,1.115-3.353,1.115c-3.234,0-4.874-2.701-4.874-8.029c0-0.387-0.013-0.841-0.028-1.349
	c-0.01-0.354-0.02-0.742-0.028-1.146C7.369,27.934,7,26.012,7,24c0-9.374,7.626-17,17-17c3.775,0,7.256,1.252,10.08,3.343
	c1.219-0.328,2.605-0.592,3.68-0.592c0.585,0,4.313,0.06,6.551,1.468C40.061,4.48,32.557,0,24,0C10.745,0,0,10.745,0,24
	s10.745,24,24,24s24-10.745,24-24C48,20.562,47.271,17.295,45.97,14.339z"/>
<g>
	<path fill="#DFB758" d="M37.76,11.75c-1.594,0-4.275,0.771-5.117,1.192c-0.841,0.421-1.515,1.181-0.772,3.084
		c0.846,2.173,0.425,7.01,0.073,8.131c-0.353,1.123,0.632,2.104,1.33,2.104c0.701,0,1.265-0.14,1.685-0.913
		c0.421-0.771,1.612-1.75,3.576-2.663c1.962-0.911,2.138-2.094,2.241-3.926C40.915,16.307,44,15.887,44,13.994
		C44,12.311,39.583,11.75,37.76,11.75z"/>
	<path fill="#FFD165" d="M24.16,12.802c-15.984,0-14.091,14.651-14.091,19.419c0,4.769,1.262,6.029,2.874,6.029
		c1.612,0,2.944-0.842,4.627-3.926c1.683-3.085,6.379-2.734,9.463-4.137c3.084-1.403,4.516-2.733,4.516-10.097
		C31.551,12.732,26.123,12.802,24.16,12.802z"/>
</g>
</svg>
