<svg xmlns="http://www.w3.org/2000/svg" width="90" height="120" viewBox="0 0 90 120"><circle fill-rule="evenodd" clip-rule="evenodd" fill="#84E0D5" cx="45" cy="52.868" r="45" enable-background="new"/><path fill="#76DDD0" d="M13.18 21.048c-17.573 17.574-17.573 46.066 0 63.64 17.574 17.574 46.066 17.574 63.641 0l-63.641-63.64z" enable-background="new"/><g fill-rule="evenodd" clip-rule="evenodd"><path fill="#E55D45" d="M43.291 8.968l1.23 8.678.024.116c2.447-.185 4.965-.076 7.356.236 5.271.688 9.963 3.171 12.771 5.125l.056-.063 5.404-6.9 1.464-1.869c.229-1.606.491-3.448.567-4.132.063-.568.047-1.104-.213-1.627-.354-.711-.806-1.349-1.351-1.923-1.082-1.136-2.365-2.002-3.725-2.755-2.216-1.227-4.565-2.135-7.012-2.782-1.812-.478-3.651-.818-5.522-.975-1.951-.162-3.892-.156-5.812.275-.968.216-1.892.557-2.707 1.138-.334.238-.659.479-.838.885-.542 1.229-1.115 2.444-1.667 3.67l-.333.749.308 2.154z"/><path fill="#FF6E53" d="M40.525 68.403l-.003-.01-.003-.01c-1.572-4.899-4.9-15.277-5.94-18.529-.386.305-.77.612-1.152.922-2.295 1.865-4.579 3.744-6.716 5.79-1.308 1.251-2.605 2.517-3.835 3.842-1.455 1.566-2.856 3.183-4.237 4.815-2.025 2.396-4.008 4.829-6.016 7.242-1.294 1.555-2.604 3.098-3.9 4.652-.245.294-.523.555-.622.966-.486 2.037-6.857 25.676-6.867 25.737 11.766-10.421 34.146-30.102 39.5-34.808l-.209-.609zM51.062 37.297l.018.049 6.678 16.204c2.144-2.083 4.243-4.207 6.175-6.49 1.702-2.01 3.247-4.129 4.459-6.475.196-.379.407-.768.499-1.177.212-.936.372-1.885.519-2.833.161-1.032.301-2.067.417-3.105.13-1.167.229-2.337.331-3.507.092-1.055.171-2.111.25-3.168.091-1.217.173-2.435.267-3.651.076-.974.163-1.948.249-2.92.095-1.072.183-2.144.292-3.213l-5.43 6.934-.556.625c-1.675 1.826-3.45 3.547-5.287 5.208-2.158 1.953-4.404 3.803-6.676 5.621-.746.597-1.501 1.183-2.255 1.771l.05.127zM36.369 20.908c-.498 1.064-.997 2.127-1.468 3.203-.418.957-.814 1.924-1.191 2.897-.347.896-.683 1.797-.967 2.713-.126.4-.138.843-.156 1.27-.123 2.637.155 5.245.624 7.837.59 3.266 1.456 6.465 2.373 9.651.045.159 6.245 19.484 6.245 19.484s11.623 34.362 17.303 51.371c.022-.059 6.325-23.715 6.922-25.722.121-.405.01-.771-.056-1.148-.346-1.994-.708-3.984-1.052-5.978-.532-3.093-1.033-6.191-1.589-9.279-.379-2.104-.785-4.205-1.262-6.288-.403-1.763-.894-3.508-1.401-5.246-.827-2.84-1.867-5.61-2.921-8.372-.312-.814-.635-1.622-.959-2.431l-7.015-17.018-.067-.176c-.484-1.205-.98-2.406-1.452-3.615-1.059-2.71-2.079-5.435-2.973-8.206-.759-2.357-1.437-4.736-1.973-7.154l-.171-.82-1.235-8.72c-.439.982-.899 1.955-1.353 2.929-.412.886-.824 1.772-1.245 2.653-.527 1.101-1.065 2.196-1.596 3.296-.458.955-.917 1.91-1.365 2.869z"/></g></svg>