<?xml version="1.0" encoding="utf-8"?>
<!-- Generator: Adobe Illustrator 16.0.4, SVG Export Plug-In . SVG Version: 6.00 Build 0)  -->
<!DOCTYPE svg PUBLIC "-//W3C//DTD SVG 1.1//EN" "http://www.w3.org/Graphics/SVG/1.1/DTD/svg11.dtd">
<svg version="1.1" id="Ebene_3_Kopie" xmlns="http://www.w3.org/2000/svg" xmlns:xlink="http://www.w3.org/1999/xlink" x="0px"
	 y="0px" width="48px" height="48px" viewBox="0 0 48 48" enable-background="new 0 0 48 48" xml:space="preserve">
<path fill="#76DDD0" d="M36.739,41.796l-3.362-1.116c-0.604-0.151-1.219-0.28-1.733-0.379c-0.946,0.443-1.924,0.802-2.921,1.068
	C27.173,41.788,25.584,42,24,42c-4.803,0-9.323-1.871-12.729-5.271C7.872,33.333,6,28.812,6,24s1.872-9.333,5.269-12.728
	C14.666,7.873,19.188,6,24,6c4.813,0,9.334,1.873,12.731,5.273C40.129,14.677,42,19.196,42,24c0,1.579-0.212,3.167-0.629,4.715
	c-0.262,0.979-0.611,1.939-1.044,2.87l0.404,1.989c0.25,0.896,0.817,2.486,1.022,3.045l0.907,2.467C45.998,34.964,48,29.717,48,24
	C48,10.745,37.255,0,24,0S0,10.745,0,24s10.745,24,24,24c5.752,0,11.029-2.025,15.163-5.399L36.739,41.796z"/>
<g>
	<defs>
		<path id="SVGID_1_" d="M36.127,31.004c0.592-1.029,1.066-2.15,1.381-3.324C37.823,26.508,38,25.271,38,24
			c0-3.869-1.572-7.369-4.1-9.9C31.369,11.565,27.869,10,24,10s-7.369,1.565-9.901,4.099C11.565,16.631,10,20.131,10,24
			s1.565,7.369,4.099,9.9C16.631,36.428,20.131,38,24,38c1.271,0,2.508-0.176,3.68-0.492c1.174-0.314,2.295-0.787,3.323-1.381
			c0,0,1.792,0.273,3.497,0.711L38,38c0,0-0.83-2.256-1.162-3.5L36.127,31.004z"/>
	</defs>
	<clipPath id="SVGID_2_">
		<use xlink:href="#SVGID_1_"  overflow="visible"/>
	</clipPath>
	<g clip-path="url(#SVGID_2_)">
		<path fill="#0068B4" d="M11.443,11.413c-3.215,3.218-5.201,7.655-5.201,12.56c0,4.908,1.986,9.346,5.201,12.558
			c1.337,1.337,2.896,2.442,4.605,3.303h15.934c0.305-0.153,0.605-0.313,0.902-0.485c0,0,1.168,0.181,2.63,0.485h5.574
			c-0.29-0.857-0.611-1.827-0.807-2.545c-0.434-1.568-0.903-4.438-0.903-4.438c0.757-1.304,1.354-2.719,1.759-4.206
			c0.406-1.487,0.625-3.056,0.625-4.672c0-4.904-1.995-9.342-5.204-12.56c-1.482-1.486-3.239-2.694-5.172-3.58H16.615
			C14.683,8.719,12.928,9.927,11.443,11.413z"/>
		<path fill="#FFFFFF" d="M28.673,9.929h-9.348v9.364H6.884c-0.406,1.492-0.643,3.055-0.643,4.68c0,1.621,0.236,3.185,0.643,4.676
			h12.441v9.363h9.348v-9.363h12.463c0-0.001,0.001-0.003,0.001-0.004c0.406-1.487,0.625-3.056,0.625-4.672
			c0-1.625-0.24-3.188-0.646-4.68H28.673V9.929z"/>
		<g>
			<path fill="#FFFFFF" d="M39.767,34.994c-0.224-1.144-0.389-2.144-0.389-2.144c0.642-1.108,1.165-2.305,1.556-3.553l-10.654-5.325
				l-6.28,3.138L39.767,34.994z"/>
			<path fill="#FFFFFF" d="M7.056,29.303c0.573,1.819,1.439,3.502,2.53,5.016l14.413-7.208l-6.279-3.138L7.056,29.303z"/>
			<path fill="#FFFFFF" d="M9.586,13.624c-1.091,1.514-1.957,3.195-2.53,5.016l10.664,5.333l6.279-3.143L9.586,13.624z"/>
			<path fill="#FFFFFF" d="M38.416,13.623L23.999,20.83l6.28,3.143l10.664-5.334C40.369,16.819,39.503,15.137,38.416,13.623z"/>
		</g>
		<g>
			<path fill="#FF6E53" d="M37.548,28.648h-4.185l6.522,3.262c0.278-0.56,0.522-1.132,0.742-1.72L37.548,28.648z"/>
			<path fill="#FF6E53" d="M29.173,19.293h4.19l6.509-3.258c-0.281-0.56-0.587-1.103-0.923-1.628L29.173,19.293z"/>
			<path fill="#FF6E53" d="M8.127,16.035c-0.278,0.562-0.526,1.132-0.747,1.721l3.07,1.537h4.191L8.127,16.035z"/>
			<path fill="#FF6E53" d="M18.829,28.648h-4.188l-6.514,3.259c0.282,0.562,0.587,1.104,0.926,1.628L18.829,28.648z"/>
		</g>
		<path fill="#FF6E53" d="M26.81,9.929h-5.621V21.16H6.484c-0.146,0.917-0.242,1.85-0.242,2.812c0,0.958,0.096,1.892,0.242,2.812
			h14.705v11.228h5.621V26.784h14.717c0.146-0.918,0.235-1.855,0.235-2.812c0-0.963-0.099-1.896-0.245-2.812H26.81V9.929z"/>
	</g>
</g>
</svg>
