<svg xmlns="http://www.w3.org/2000/svg" width="16" height="16" viewBox="17 17 16 16" enable-background="new 17 17 16 16"><path fill="#DD4B39" d="M18.662 21.492c0 1.188.396 2.045 1.178 2.549.641.413 1.383.475 1.771.475l.222-.008s-.122.799.47 1.587h-.027c-1.025 0-4.369.215-4.369 2.965 0 2.798 3.071 2.939 3.687 2.939l.078-.001.125.001c.395 0 1.417-.05 2.366-.511 1.231-.598 1.856-1.638 1.856-3.09 0-1.404-.952-2.239-1.646-2.851-.424-.373-.791-.694-.791-1.007 0-.319.269-.558.606-.861.548-.489 1.065-1.188 1.065-2.506 0-1.158-.15-1.937-1.077-2.431.096-.049.438-.086.607-.109.501-.068 1.236-.147 1.236-.557v-.076h-3.658c-.037.001-3.699.137-3.699 3.492zm5.904 7.169c.071 1.119-.886 1.943-2.324 2.048-1.459.105-2.661-.551-2.73-1.667-.034-.539.202-1.063.664-1.483.469-.424 1.112-.687 1.812-.738l.247-.01c1.35.002 2.265.795 2.331 1.85zm-.955-7.935c.358 1.262-.183 2.582-1.046 2.826-.1.028-.202.042-.306.042-.791 0-1.574-.8-1.865-1.903-.163-.618-.149-1.16.037-1.68.183-.513.512-.858.926-.975.099-.028.202-.042.307-.042.952-.001 1.567.395 1.947 1.732zm6.195 2.683v-2.386h-1.59v2.386h-2.387v1.591h2.387v2.388h1.59v-2.388h2.386v-1.591h-2.386z"/></svg>