<?xml version="1.0" encoding="utf-8"?>
<!-- Generator: Adobe Illustrator 16.0.4, SVG Export Plug-In . SVG Version: 6.00 Build 0)  -->
<!DOCTYPE svg PUBLIC "-//W3C//DTD SVG 1.1//EN" "http://www.w3.org/Graphics/SVG/1.1/DTD/svg11.dtd">
<svg version="1.1" id="Ebene_3_Kopie" xmlns="http://www.w3.org/2000/svg" xmlns:xlink="http://www.w3.org/1999/xlink" x="0px"
	 y="0px" width="48px" height="48px" viewBox="0 0 48 48" enable-background="new 0 0 48 48" xml:space="preserve">
<path fill="#76DDD0" d="M24,7c9.374,0,17,7.626,17,17s-7.626,17-17,17S7,33.374,7,24S14.626,7,24,7 M24,0C10.745,0,0,10.745,0,24
	s10.745,24,24,24s24-10.745,24-24S37.255,0,24,0L24,0z"/>
<g>
	<path fill="#3F5564" d="M34.5,22.948v0.231c0,2.582-0.363,4.391-1.083,5.433c-0.72,1.044-1.807,1.559-3.261,1.559
		c-0.701,0-1.3-0.115-1.792-0.341c-0.492-0.228-0.812-0.451-0.954-0.666l-0.209-0.351c-1.376,0.888-2.687,1.337-3.934,1.337
		c-1.238,0-2.227-0.435-2.978-1.307c-0.74-0.865-1.111-2.348-1.111-4.456c0-2.104,0.342-3.643,1.029-4.61
		c0.691-0.968,1.881-1.456,3.566-1.456c0.63,0,1.298,0.142,2.024,0.423l0.371,0.164V18.58h2.541v4.316
		c0,2.379,0.069,3.825,0.229,4.342c0.043,0.187,0.129,0.353,0.263,0.494c0.123,0.142,0.248,0.226,0.379,0.252
		c0.136,0.035,0.365,0.054,0.693,0.054s0.617-0.115,0.865-0.328c0.533-0.488,0.8-1.993,0.8-4.53v-0.261
		c0-2.672-0.604-4.614-1.823-5.815c-1.201-1.206-3.166-1.805-5.871-1.805c-2.707,0-4.754,0.724-6.141,2.18
		c-1.377,1.454-2.072,3.677-2.072,6.671c0,3.003,0.635,5.179,1.915,6.53c1.273,1.345,3.382,2.03,6.32,2.03l3.357-0.218l0.112,2.231
		c-1.438,0.142-2.592,0.209-3.47,0.209c-1.792,0-3.341-0.172-4.62-0.529c-1.286-0.351-2.396-0.943-3.33-1.77
		c-1.884-1.641-2.818-4.528-2.818-8.656c0-3.675,0.941-6.415,2.828-8.216c1.88-1.798,4.536-2.694,7.963-2.694
		C31.096,13.067,34.5,16.356,34.5,22.948z M23.655,27.919c0.667,0,1.553-0.267,2.681-0.8c-0.115-0.623-0.166-1.682-0.166-3.166
		v-3.05c-0.781-0.231-1.409-0.351-1.879-0.351c-0.994,0-1.669,0.283-2.016,0.857c-0.347,0.565-0.515,1.525-0.515,2.871
		C21.761,26.707,22.395,27.919,23.655,27.919z"/>
</g>
</svg>
