<?xml version="1.0" encoding="utf-8"?>
<!-- Generator: Adobe Illustrator 16.0.4, SVG Export Plug-In . SVG Version: 6.00 Build 0)  -->
<!DOCTYPE svg PUBLIC "-//W3C//DTD SVG 1.1//EN" "http://www.w3.org/Graphics/SVG/1.1/DTD/svg11.dtd">
<svg version="1.1" id="Ebene_3_Kopie" xmlns="http://www.w3.org/2000/svg" xmlns:xlink="http://www.w3.org/1999/xlink" x="0px"
	 y="0px" width="48px" height="48px" viewBox="0 0 48 48" enable-background="new 0 0 48 48" xml:space="preserve">
<path fill="#FFFFFF" d="M24,0C10.745,0,0,10.745,0,24s10.745,24,24,24s24-10.745,24-24S37.255,0,24,0L24,0z"/>
<path fill="#76DDD0" d="M24,7c9.374,0,17,7.626,17,17s-7.626,17-17,17S7,33.374,7,24S14.626,7,24,7 M24,0C10.745,0,0,10.745,0,24
	s10.745,24,24,24s24-10.745,24-24S37.255,0,24,0L24,0z"/>
<path fill="#DF6585" d="M39,24.016c0-0.547-0.443-0.99-0.99-0.99h-2.691c-0.055-0.768-0.188-1.513-0.389-2.228l2.987-1.069
	c0.515-0.185,0.783-0.75,0.601-1.266c-0.186-0.516-0.752-0.784-1.267-0.599l-3.022,1.081c-0.283-0.584-0.621-1.138-0.998-1.661
	l2.289-2.288c0.389-0.387,0.389-1.013,0-1.4c-0.387-0.386-1.015-0.386-1.397,0l-2.188,2.19c-0.641-0.616-1.352-1.156-2.117-1.608
	l1.342-2.837c0.232-0.494,0.021-1.084-0.473-1.317s-1.084-0.022-1.317,0.472l-1.341,2.837c-0.903-0.331-1.858-0.546-2.854-0.637
	v-2.532c0-0.547-0.442-0.992-0.99-0.992s-0.991,0.444-0.991,0.992v2.526c-0.709,0.061-1.401,0.188-2.068,0.375l-0.887-2.483
	c-0.184-0.515-0.75-0.784-1.266-0.599c-0.514,0.184-0.783,0.75-0.599,1.265l0.901,2.519c-0.655,0.318-1.273,0.7-1.849,1.133
	L15.5,12.979c-0.385-0.386-1.013-0.386-1.399,0c-0.387,0.387-0.387,1.013,0,1.4l1.852,1.852c-0.634,0.688-1.189,1.451-1.637,2.282
	l-2.47-1.17c-0.495-0.233-1.084-0.022-1.319,0.472c-0.233,0.495-0.023,1.084,0.472,1.317l2.535,1.199
	c-0.281,0.857-0.46,1.757-0.527,2.689H9.99C9.444,23.02,9,23.464,9,24.01c0,0.547,0.444,0.991,0.99,0.991h3.046
	c0.078,0.746,0.228,1.472,0.446,2.165l-2.343,0.837c-0.516,0.185-0.784,0.751-0.599,1.267c0.184,0.517,0.75,0.781,1.265,0.601
	l2.438-0.872c0.341,0.652,0.743,1.268,1.199,1.836l-1.906,1.906c-0.386,0.387-0.386,1.012,0,1.396c0.387,0.387,1.013,0.387,1.399,0
	l1.878-1.878c0.698,0.608,1.472,1.134,2.308,1.556L17.9,36.391c-0.233,0.494-0.021,1.086,0.472,1.317
	c0.494,0.233,1.085,0.022,1.318-0.472l1.274-2.69c0.714,0.213,1.459,0.354,2.225,0.422v2.87c0,0.546,0.444,0.99,0.99,0.99
	c0.545,0,0.991-0.444,0.991-0.99v-2.874c0.925-0.083,1.816-0.278,2.664-0.573l0.984,2.756c0.186,0.518,0.752,0.785,1.266,0.601
	c0.518-0.187,0.785-0.751,0.6-1.267l-1.039-2.904c0.575-0.323,1.117-0.693,1.625-1.11l2.285,2.285c0.387,0.388,1.012,0.388,1.398,0
	c0.386-0.387,0.387-1.012,0-1.397l-2.273-2.274c0.56-0.656,1.041-1.378,1.44-2.153l3.089,1.463c0.494,0.232,1.084,0.021,1.316-0.473
	s0.021-1.084-0.471-1.316l-3.19-1.511c0.202-0.67,0.346-1.369,0.422-2.086h2.724v0.008C38.557,25.007,39,24.562,39,24.016z
	 M26.805,23.82c-0.729,0.733-1.701,1.134-2.738,1.134c-0.014,0-0.027,0-0.043,0c-0.014,0-0.022,0-0.033,0h-0.023
	c-0.01,0-0.022-0.001-0.036-0.001c-0.546-0.018-1.08,0.188-1.467,0.578c-0.371,0.369-0.578,0.863-0.578,1.391
	c0,0.531,0.206,1.026,0.578,1.396c0.373,0.373,0.373,0.979,0,1.354c-0.186,0.186-0.429,0.279-0.675,0.279
	c-0.242,0-0.485-0.094-0.672-0.279c-0.734-0.738-1.14-1.716-1.14-2.75c0-1.031,0.406-2.008,1.14-2.742
	c0.769-0.77,1.835-1.183,2.924-1.13c0.537,0.008,1.037-0.198,1.412-0.576c0.375-0.372,0.58-0.869,0.58-1.395
	c0-0.526-0.205-1.023-0.58-1.395c-0.374-0.372-0.374-0.976,0-1.349c0.375-0.375,0.979-0.375,1.351,0
	c0.738,0.734,1.141,1.705,1.141,2.743S27.542,23.086,26.805,23.82z"/>
<path fill="#C35874" d="M39,24.016c0-0.547-0.443-0.99-0.99-0.99h-2.691c-0.055-0.768-0.188-1.513-0.389-2.228l2.987-1.069
	c0.515-0.185,0.783-0.75,0.601-1.266c-0.186-0.516-0.752-0.784-1.267-0.599l-2.285,0.817C34.65,26.58,28.94,33.115,21.414,34.655
	c0.577,0.146,1.167,0.259,1.775,0.312v2.87c0,0.546,0.444,0.99,0.99,0.99c0.545,0,0.991-0.444,0.991-0.99v-2.874
	c0.925-0.083,1.816-0.278,2.664-0.573l0.984,2.756c0.186,0.518,0.752,0.785,1.266,0.601c0.518-0.187,0.785-0.751,0.6-1.267
	l-1.039-2.904c0.575-0.323,1.117-0.693,1.625-1.11l2.285,2.285c0.387,0.388,1.012,0.388,1.398,0c0.386-0.387,0.387-1.012,0-1.397
	l-2.273-2.274c0.56-0.656,1.041-1.378,1.44-2.153l3.089,1.463c0.494,0.232,1.084,0.021,1.316-0.473s0.021-1.084-0.471-1.316
	l-3.19-1.511c0.202-0.67,0.346-1.369,0.422-2.086h2.724v0.008C38.557,25.007,39,24.562,39,24.016z"/>
</svg>
