<?xml version="1.0" encoding="utf-8"?>
<!-- Generator: Adobe Illustrator 16.0.4, SVG Export Plug-In . SVG Version: 6.00 Build 0)  -->
<!DOCTYPE svg PUBLIC "-//W3C//DTD SVG 1.1//EN" "http://www.w3.org/Graphics/SVG/1.1/DTD/svg11.dtd">
<svg version="1.1" id="Ebene_1_Kopie" xmlns="http://www.w3.org/2000/svg" xmlns:xlink="http://www.w3.org/1999/xlink" x="0px"
	 y="0px" width="48px" height="47.999px" viewBox="0 0 48 47.999" enable-background="new 0 0 48 47.999" xml:space="preserve">
<path fill="#76DDD0" d="M21,40.719C13.055,39.296,7,32.349,7,24c0-9.374,7.626-17,17-17c8.349,0,15.296,6.055,16.719,14h7.088
	C46.329,9.162,36.238,0,24,0C10.745,0,0,10.745,0,24c0,12.238,9.162,22.329,21,23.807V40.719z"/>
<g>
	<polygon fill="#DF6585" points="32.569,46.915 36.622,47.999 38.398,41.37 43.253,46.226 46.224,43.255 41.371,38.403 48,36.63 
		46.912,32.571 40.28,34.349 42.057,27.718 38.005,26.632 36.229,33.263 31.374,28.406 28.402,31.378 33.256,36.229 26.627,38.005 
		27.716,42.063 34.347,40.284 	"/>
	<polygon fill="#C35874" points="32.569,46.915 36.622,47.999 38.398,41.37 43.253,46.226 31.374,28.406 28.402,31.378 
		33.256,36.229 26.627,38.005 27.716,42.063 34.347,40.284 	"/>
</g>
<path fill="#76DDD0" d="M24.763,29.946c1.226-2.295,3.032-4.223,5.221-5.61C29.989,24.224,30,24.113,30,24c0-3.312-2.688-6-6-6
	s-6,2.688-6,6s2.688,6,6,6C24.259,30,24.513,29.979,24.763,29.946z"/>
</svg>
