<?xml version="1.0" encoding="utf-8"?>
<!-- Generator: Adobe Illustrator 16.0.4, SVG Export Plug-In . SVG Version: 6.00 Build 0)  -->
<!DOCTYPE svg PUBLIC "-//W3C//DTD SVG 1.1//EN" "http://www.w3.org/Graphics/SVG/1.1/DTD/svg11.dtd">
<svg version="1.1" id="Ebene_1" xmlns="http://www.w3.org/2000/svg" xmlns:xlink="http://www.w3.org/1999/xlink" x="0px" y="0px"
	 width="36px" height="36px" viewBox="0 0 36 36" enable-background="new 0 0 36 36" xml:space="preserve">
<circle fill="#FFFFFF" cx="18" cy="18" r="18"/>
<path fill="#FF6E53" d="M16.935,12.941c1.625,0,3.151,0.635,4.299,1.789c1.148,1.155,1.783,2.692,1.783,4.328h2.502
	c0-4.752-3.852-8.619-8.584-8.619V12.941z"/>
<path fill="#FF6E53" d="M16.938,8.504c5.79,0,10.5,4.736,10.5,10.557h2.502C29.941,11.859,24.109,6,16.938,6V8.504z"/>
<g>
	<path fill="#0068B4" d="M10.166,24.823H7.754v-9h2.394v0.504c0.828-0.479,1.536-0.72,2.124-0.72c0.972,0,1.722,0.282,2.25,0.846
		c1.104-0.564,2.112-0.846,3.024-0.846c1.188,0,2.013,0.345,2.475,1.035c0.462,0.69,0.693,1.791,0.693,3.303v4.878h-2.412v-4.807
		c0-0.768-0.084-1.334-0.252-1.7c-0.168-0.366-0.504-0.549-1.008-0.549c-0.384,0-0.852,0.084-1.404,0.252l-0.27,0.09
		c0.048,0.899,0.072,1.584,0.072,2.052v4.662h-2.412v-4.626c0-0.888-0.078-1.515-0.234-1.881c-0.156-0.366-0.498-0.549-1.026-0.549
		c-0.468,0-0.93,0.084-1.386,0.252l-0.216,0.072V24.823z"/>
</g>
</svg>
